G04 Layer_Color=16711935*
%FSLAX25Y25*%
%MOIN*%
G70*
G01*
G75*
%ADD50C,0.00600*%
D50*
X939000Y411999D02*
Y408000D01*
X941666D01*
X942999D02*
Y411999D01*
X944332Y410666D01*
X945665Y411999D01*
Y408000D01*
X946997Y411999D02*
X949663D01*
Y411332D01*
X946997Y408666D01*
Y408000D01*
X950996Y411332D02*
X951663Y411999D01*
X952995D01*
X953662Y411332D01*
Y410666D01*
X952995Y409999D01*
X953662Y409333D01*
Y408666D01*
X952995Y408000D01*
X951663D01*
X950996Y408666D01*
Y409333D01*
X951663Y409999D01*
X950996Y410666D01*
Y411332D01*
X951663Y409999D02*
X952995D01*
X954995Y408000D02*
X956328D01*
X955661D01*
Y411999D01*
X954995Y411332D01*
X960993Y408000D02*
X958327D01*
X960993Y410666D01*
Y411332D01*
X960326Y411999D01*
X958994D01*
X958327Y411332D01*
X964992D02*
X964325Y411999D01*
X962992D01*
X962326Y411332D01*
Y408666D01*
X962992Y408000D01*
X964325D01*
X964992Y408666D01*
X966325Y411999D02*
X968990D01*
X967657D01*
Y408000D01*
X1014000Y411999D02*
Y408000D01*
X1016666D01*
X1017999D02*
Y411999D01*
X1019332Y410666D01*
X1020665Y411999D01*
Y408000D01*
X1021997Y411999D02*
X1024663D01*
Y411332D01*
X1021997Y408666D01*
Y408000D01*
X1025996Y408666D02*
X1026663Y408000D01*
X1027995D01*
X1028662Y408666D01*
Y411332D01*
X1027995Y411999D01*
X1026663D01*
X1025996Y411332D01*
Y410666D01*
X1026663Y409999D01*
X1028662D01*
X1029995Y408000D02*
X1031328D01*
X1030661D01*
Y411999D01*
X1029995Y411332D01*
X1035993Y411999D02*
X1033327D01*
Y409999D01*
X1034660Y410666D01*
X1035326D01*
X1035993Y409999D01*
Y408666D01*
X1035326Y408000D01*
X1033994D01*
X1033327Y408666D01*
X1039992Y411332D02*
X1039325Y411999D01*
X1037992D01*
X1037326Y411332D01*
Y408666D01*
X1037992Y408000D01*
X1039325D01*
X1039992Y408666D01*
X1041325Y411999D02*
X1043990D01*
X1042657D01*
Y408000D01*
X866000Y411999D02*
Y408000D01*
X868666D01*
X869999D02*
Y411999D01*
X871332Y410666D01*
X872665Y411999D01*
Y408000D01*
X873997Y411999D02*
X876663D01*
Y411332D01*
X873997Y408666D01*
Y408000D01*
X877996Y411332D02*
X878663Y411999D01*
X879996D01*
X880662Y411332D01*
Y410666D01*
X879996Y409999D01*
X880662Y409333D01*
Y408666D01*
X879996Y408000D01*
X878663D01*
X877996Y408666D01*
Y409333D01*
X878663Y409999D01*
X877996Y410666D01*
Y411332D01*
X878663Y409999D02*
X879996D01*
X881995Y411332D02*
X882661Y411999D01*
X883994D01*
X884661Y411332D01*
Y408666D01*
X883994Y408000D01*
X882661D01*
X881995Y408666D01*
Y411332D01*
X888659Y411999D02*
X885993D01*
Y409999D01*
X887326Y410666D01*
X887993D01*
X888659Y409999D01*
Y408666D01*
X887993Y408000D01*
X886660D01*
X885993Y408666D01*
X892658Y411332D02*
X891992Y411999D01*
X890659D01*
X889992Y411332D01*
Y408666D01*
X890659Y408000D01*
X891992D01*
X892658Y408666D01*
X893991Y411999D02*
X896657D01*
X895324D01*
Y408000D01*
M02*
