M48
;Layer_Color=9474304
;FILE_FORMAT=2:5
INCH,LZ
;TYPE=PLATED
T1F00S00C0.01968
T2F00S00C0.02800
T3F00S00C0.03000
T4F00S00C0.03543
T5F00S00C0.03937
T6F00S00C0.04331
T7F00S00C0.04528
T8F00S00C0.09000
%
T01
X0885Y0360157
Y0379842
X0915158Y0383
X0934842
X1020158Y0335
X1039843
X1195158
X1214843
T02
X15995Y02546
X1599Y02701
X15213Y0202
X15053
X14898Y02015
X14588Y02025
X14433Y02015
X14273Y0202
X14118Y02015
X13963Y0201
X13808Y02005
X11455Y0202
X11295
X1114Y02015
X1083Y02025
X1195158Y0265158
X10651Y0282
X10491Y02735
X10336Y02649
X10181Y02559
X10026Y02475
X1005Y02005
X10205Y0201
X1036Y02015
X10515Y0202
X10675Y02015
X0846496Y0273504
X0819Y0282
X07675Y0202
X07515
X0736Y02015
X0705Y02025
X06895Y02015
X06735Y0202
X0658Y02015
X06425Y0201
X0627Y02005
X06253Y02475
X06405Y0256
X0657Y0265
X06705Y02735
X06878Y0282
X03863Y0202
X03703
X03548Y02015
X03238Y02025
X03083Y02015
X02923Y0202
X02768Y02015
X02613Y0201
X02458Y02005
X0360652Y03
X03712Y0309
X03881Y03185
X0696Y0291
X07385Y03
X07498Y0309
X07665Y03175
X0797Y0337
X0807
X0802Y0347
X0792
X0787Y0357
X0797
X0807
X0817
X0812Y0367
X0802
X0792
X0807Y0377
X0817
X0812Y0387
X0802
X0797Y0397
X0787
X0792Y0407
X0802
X0812
X0822
X0832
X0842
X0837Y0397
X0827
X0817
X0807
Y0417
X0797
X0787
X0792Y0427
X0802
X0812
X0822
X0832
X0842
X0852
X0862
X0872
X0882
X0892
X0902
X0912
X0907Y0417
X0897
X0902Y0407
X0897Y0397
X0907
X0902Y0387
X0892
X0897Y0377
X0892Y0367
X0877Y0377
X0852Y0367
X0847Y0357
X0857
X0842Y0347
X0827Y0337
X0822Y0367
Y0387
X0817Y0417
X0827
X0837
X0847
Y0437
X0837
X0827
X0817
X0807
X0797
X0787
X0857
X0867
X0877
X0887
X0897
X0907
X0917
Y0337
X0907
X0897
X0902Y0347
X0867Y0337
X0932Y0347
X0942
X0937Y0357
X0927
X0922Y0367
X0932
X0937Y0377
X0957
X0967
X0977
X0987
X0982Y0367
X0972
X0962
X0967Y0357
X0977
X0987
X0982Y0347
X0972
X0992
X0987Y0337
X0997
X1007
X1012Y0347
X1022
X1032
X1027Y0337
Y0357
X1017
X1012Y0367
X1002
X0992
X1007Y0377
X1017
X1027
X1037
X1032Y0367
X1022
Y0387
X1012
X1007Y0397
X0997
X0987
X0982Y0387
X0972
X0962
X0957Y0397
X0972Y0407
X0982
X0992
X0987Y0417
X0977
X0967
X0962Y0427
X0972
X0982
X0992
X1002
X1012
X1022
X1017Y0437
X1007
X0997
X0987
X0977
X0967
X0957
X0947
X0937
X0927
X0922Y0407
X0927Y0397
X0922Y0387
X0957Y0337
X1047
X1057
X1067
X1072Y0347
X1052
X1047Y0357
X1062Y0367
X1057Y0397
X1067
X1062Y0407
X1052
X1042Y0387
X1032
X1027Y0397
X1017
X0997Y0417
X1027Y0437
X1037
X1047
X1057
X1067
X1062Y0427
X1072
X1075Y0291
X1077Y0337
X1087
X1097
X1107
X1117
X1127
X1137
X1147
X1157
X1167
X1177
X1172Y0347
X1167Y0357
X1177
X1172Y0367
X1142
X1132
X1122
X1112
X1102
X1092
X1097Y0377
X1107
X1117
X1127
X1137
X1147
X1142Y0387
X1132
X1122
X1112
X1127Y0397
X1137
X1147
X1142Y0407
X1132
X1152
X1162
X1172
X1167Y0417
X1157
X1147
X1152Y0427
X1162
X1172
X1122
X1117Y0437
X1127
X1077
Y0417
Y0357
X1082Y0347
X1112
X1122
X1132
X1142
X1137Y0357
X1127
X1117
X1107
X1147
X11431Y03185
X11265Y0309
X11165Y03
X1207Y0337
X1202Y0347
X1212
X1222
X1217Y0357
X1207
X1197
X1202Y0367
X1212
X1222
X1217Y0377
X1207
X1212Y0387
X1222
X1217Y0397
X1227
X1222Y0407
X1227Y0377
Y0357
Y0337
X1237
X1247
X1242Y0347
X1232
X1272
X1282
X1292
X1302
X1312
X1307Y0337
X1297
X1287
X1277
X1267
Y0357
X1277
X1287
X1297
X1307
X1317
X1312Y0367
X1302
X1292
X1282
X1257Y0377
X1247Y0397
Y0417
X1242Y0427
X1232
X1287Y0417
X1297
X1307
X1317
X1312Y0407
X1302
X1292
X1282
X1287Y0397
X1297
X1307
X1317
X1337
X1347
X1342Y0387
X1337Y0377
X1347
X1342Y0367
X1337Y0357
X1347
Y0337
X1317
X1355Y0291
X1357Y0417
X1347
X1337
X1342Y0407
Y0427
X1352
X1362
X1357Y0437
X1347
X1337
X1327
X1317
X1307
X1598Y03951
Y03791
X15985Y03636
X15975Y03326
X15985Y03171
X1598Y03011
X15985Y02856
X15201Y0448
X15041
X14886Y04485
X14576Y04475
X14421Y04485
X14261Y0448
X14106Y04485
X13951Y0449
X13796Y04495
X1207Y0457
X1197
X1187
X1177
X1167
X1157
X1147
X1137
X1127
X1117
X1107
X1097
X1087
X1077
X1082Y0447
X1092
X1102
X1112
X1122
X1132
X1142
Y0467
X1132
X1122
X1112
X1102
X1092
X1082
X1152
X1162
X1172
X1182
X1192
X1202
X1212
X1072
X1062
X1052
X1042
X1032
X1022
X1012
X1002
X0992
X0982
X0972
X0962
X0952
X0942
X0932
X0922
X0927Y0457
X0937
X0947
X0957
X0967
X0977
X0987
X0997
X1007
X1017
X1027
X1037
X1047
X1057
X1067
X1062Y0447
X1052
X1042
X1032
X1022
X1012
X1002
X0992
X0982
X0972
X0962
X0952
X0942
X0932
X0922
X1072
X0912
X0902
X0892
X0882
X0872
X0862
X0857Y0457
X0867
X0877
X0887
X0897
X0907
X0917
X0912Y0467
X0902
X0892
X0882
X0872
X0862
X07675Y0448
X07515
X0736Y04485
X0705Y04475
X06895Y04485
X06735Y0448
X0658Y04485
X06425Y0449
X0627Y04495
X03875Y0448
X03715
X0356Y04485
X0325Y04475
X03095Y04485
X02935Y0448
X0278Y04485
X02625Y0449
X0247Y04495
T03
X03092Y02815
X0294Y02725
X0278Y02635
X0263Y02555
X02475Y02475
X0322056Y0291
T04
X1355Y0385
Y0395
Y0405
X1297Y0441284
X1287
T05
X0862Y041
X0872
X0882
X0935
X0945
X0955
X101
X102
X103
T06
X1185Y041
X1195
X1205
T07
X1257Y0388567
Y0424
X1325Y0427716
Y0392284
T08
X0783504Y0329
X0788504Y038
X0851496
X0846496Y0329
X0878504Y0335
X0941496
X0975Y0333504
X0999504Y0355
X0998504Y0385
X0975Y0396496
X1061496Y0385
X1062496Y0355
X1093504Y035
X1089567Y039
X1160433
X1156496Y035
X1184504Y037
X1247496
X1259567Y0345
X1330433
M30
