G04 Layer_Color=32768*
%FSLAX25Y25*%
%MOIN*%
G70*
G01*
G75*
%ADD51C,0.00394*%
%ADD52C,0.00197*%
D51*
X1195000Y408032D02*
Y411969D01*
X1193032Y410000D02*
X1196968D01*
X1018032D02*
X1021968D01*
X1020000Y408032D02*
Y411969D01*
X1325000Y408032D02*
Y411969D01*
X1323032Y410000D02*
X1326968D01*
X870032D02*
X873969D01*
X872000Y408032D02*
Y411969D01*
X943032Y410000D02*
X946968D01*
X945000Y408032D02*
Y411969D01*
X1257000Y404315D02*
Y408252D01*
X1255031Y406284D02*
X1258969D01*
D52*
X998543Y402323D02*
Y421614D01*
Y402323D02*
X1041457D01*
X998543Y421614D02*
X1041457D01*
Y402323D02*
Y421614D01*
X1319961Y388642D02*
Y431358D01*
Y388642D02*
X1330039D01*
X1319961Y431358D02*
X1330039D01*
Y388642D02*
Y431358D01*
X850543Y402323D02*
Y421614D01*
Y402323D02*
X893457D01*
X850543Y421614D02*
X893457D01*
Y402323D02*
Y421614D01*
X923543Y402323D02*
Y421614D01*
Y402323D02*
X966457D01*
X923543Y421614D02*
X966457D01*
Y402323D02*
Y421614D01*
X1251961Y384925D02*
Y427642D01*
Y384925D02*
X1262039D01*
X1251961Y427642D02*
X1262039D01*
Y384925D02*
Y427642D01*
M02*
