G04 Layer_Color=255*
%FSLAX25Y25*%
%MOIN*%
G70*
G01*
G75*
%ADD10O,0.10000X0.31500*%
%ADD11R,0.10000X0.31500*%
%ADD12O,0.31500X0.10000*%
%ADD13R,0.31500X0.10000*%
%ADD15C,0.06000*%
%ADD16C,0.12500*%
%ADD17R,0.06299X0.06299*%
%ADD18C,0.06299*%
%ADD19C,0.06496*%
%ADD20R,0.06496X0.06496*%
%ADD21C,0.05000*%
%ADD22C,0.05906*%
%ADD23R,0.05906X0.05906*%
%ADD24R,0.05906X0.05906*%
%ADD25C,0.06693*%
%ADD26R,0.06693X0.06693*%
D10*
X642600Y465000D02*
D03*
X689400D02*
D03*
X658200D02*
D03*
X673800D02*
D03*
X705000D02*
D03*
X736200D02*
D03*
X751800D02*
D03*
X261400Y185000D02*
D03*
X277000D02*
D03*
X308200D02*
D03*
X292600D02*
D03*
X323800D02*
D03*
X355000D02*
D03*
X370600D02*
D03*
X1020600D02*
D03*
X1036200D02*
D03*
X1067400D02*
D03*
X1051800D02*
D03*
X1083000D02*
D03*
X1114200D02*
D03*
X1129800D02*
D03*
X262600Y465000D02*
D03*
X309400D02*
D03*
X278200D02*
D03*
X293800D02*
D03*
X325000D02*
D03*
X356200D02*
D03*
X371800D02*
D03*
X642600Y185000D02*
D03*
X658200D02*
D03*
X689400D02*
D03*
X673800D02*
D03*
X705000D02*
D03*
X736200D02*
D03*
X751800D02*
D03*
X1396400D02*
D03*
X1412000D02*
D03*
X1427600D02*
D03*
X1443200D02*
D03*
X1458800D02*
D03*
X1490000D02*
D03*
X1505600D02*
D03*
X1395200Y465000D02*
D03*
X1442000D02*
D03*
X1410800D02*
D03*
X1426400D02*
D03*
X1457600D02*
D03*
X1488800D02*
D03*
X1504400D02*
D03*
D11*
X627000D02*
D03*
X767400D02*
D03*
X245800Y185000D02*
D03*
X386200D02*
D03*
X1005000D02*
D03*
X1145400D02*
D03*
X247000Y465000D02*
D03*
X387400D02*
D03*
X627000Y185000D02*
D03*
X767400D02*
D03*
X1380800D02*
D03*
X1521200D02*
D03*
X1379600Y465000D02*
D03*
X1520000D02*
D03*
D12*
X1615000Y332600D02*
D03*
Y363800D02*
D03*
Y379400D02*
D03*
Y285800D02*
D03*
Y270200D02*
D03*
Y317000D02*
D03*
Y301400D02*
D03*
D13*
Y395000D02*
D03*
Y254600D02*
D03*
D15*
X247500Y247500D02*
D03*
X263000Y255500D02*
D03*
X278000Y263500D02*
D03*
X294000Y272500D02*
D03*
X309200Y281500D02*
D03*
X322056Y291000D02*
D03*
D16*
X1330433Y345000D02*
D03*
X1259567D02*
D03*
X878504Y335000D02*
D03*
X941496D02*
D03*
X783504Y330000D02*
D03*
X846496D02*
D03*
X975000Y396496D02*
D03*
Y333504D02*
D03*
X1061496Y385000D02*
D03*
X998504D02*
D03*
X1061496Y355000D02*
D03*
X998504D02*
D03*
X1247992Y370000D02*
D03*
X1185000D02*
D03*
X1093504Y350000D02*
D03*
X1156496D02*
D03*
X1160433Y390000D02*
D03*
X1089567D02*
D03*
X788504Y380000D02*
D03*
X851496D02*
D03*
D17*
X935000Y410000D02*
D03*
X1010000D02*
D03*
X862000D02*
D03*
D18*
X945000D02*
D03*
X955000D02*
D03*
X1020000D02*
D03*
X1030000D02*
D03*
X872000D02*
D03*
X882000D02*
D03*
D19*
X1325000Y392284D02*
D03*
X1257000Y424000D02*
D03*
D20*
X1325000Y427716D02*
D03*
X1257000Y388567D02*
D03*
D21*
X885000Y379842D02*
D03*
Y360157D02*
D03*
X1039685Y335000D02*
D03*
X1020000D02*
D03*
X1195158D02*
D03*
X1214843D02*
D03*
X905000Y380000D02*
D03*
Y360315D02*
D03*
D22*
X1287000Y441284D02*
D03*
X1355000Y405000D02*
D03*
Y395000D02*
D03*
D23*
X1297000Y441284D02*
D03*
D24*
X1355000Y385000D02*
D03*
D25*
X1195000Y410000D02*
D03*
X1205000D02*
D03*
D26*
X1185000D02*
D03*
M02*
