G04 Layer_Color=8388736*
%FSLAX25Y25*%
%MOIN*%
G70*
G01*
G75*
%ADD37O,0.10800X0.32300*%
%ADD38R,0.10800X0.32300*%
%ADD39O,0.32300X0.10800*%
%ADD40R,0.32300X0.10800*%
%ADD41C,0.07493*%
%ADD42R,0.07493X0.07493*%
%ADD43C,0.07099*%
%ADD44R,0.07099X0.07099*%
%ADD45C,0.06706*%
%ADD46R,0.06706X0.06706*%
%ADD47R,0.06706X0.06706*%
%ADD48R,0.07296X0.07296*%
%ADD49C,0.07296*%
%ADD50C,0.13792*%
%ADD51C,0.14579*%
%ADD52C,0.08674*%
%ADD53C,0.05800*%
D37*
X1504400Y465000D02*
D03*
X1488800D02*
D03*
X1457600D02*
D03*
X1426400D02*
D03*
X1410800D02*
D03*
X1442000D02*
D03*
X1395200D02*
D03*
X1505600Y185000D02*
D03*
X1490000D02*
D03*
X1458800D02*
D03*
X1443200D02*
D03*
X1427600D02*
D03*
X1412000D02*
D03*
X1396400D02*
D03*
X751800D02*
D03*
X736200D02*
D03*
X705000D02*
D03*
X673800D02*
D03*
X689400D02*
D03*
X658200D02*
D03*
X642600D02*
D03*
X371800Y465000D02*
D03*
X356200D02*
D03*
X325000D02*
D03*
X293800D02*
D03*
X278200D02*
D03*
X309400D02*
D03*
X262600D02*
D03*
X1129800Y185000D02*
D03*
X1114200D02*
D03*
X1083000D02*
D03*
X1051800D02*
D03*
X1067400D02*
D03*
X1036200D02*
D03*
X1020600D02*
D03*
X370600D02*
D03*
X355000D02*
D03*
X323800D02*
D03*
X292600D02*
D03*
X308200D02*
D03*
X277000D02*
D03*
X261400D02*
D03*
X751800Y465000D02*
D03*
X736200D02*
D03*
X705000D02*
D03*
X673800D02*
D03*
X658200D02*
D03*
X689400D02*
D03*
X642600D02*
D03*
D38*
X1520000D02*
D03*
X1379600D02*
D03*
X1521200Y185000D02*
D03*
X1380800D02*
D03*
X767400D02*
D03*
X627000D02*
D03*
X387400Y465000D02*
D03*
X247000D02*
D03*
X1145400Y185000D02*
D03*
X1005000D02*
D03*
X386200D02*
D03*
X245800D02*
D03*
X767400Y465000D02*
D03*
X627000D02*
D03*
D39*
X1615000Y301400D02*
D03*
Y317000D02*
D03*
Y270200D02*
D03*
Y285800D02*
D03*
Y379400D02*
D03*
Y363800D02*
D03*
Y332600D02*
D03*
D40*
Y254600D02*
D03*
Y395000D02*
D03*
D41*
X1205000Y410000D02*
D03*
X1195000D02*
D03*
D42*
X1185000D02*
D03*
D43*
X882000D02*
D03*
X872000D02*
D03*
X1030000D02*
D03*
X1020000D02*
D03*
X955000D02*
D03*
X945000D02*
D03*
D44*
X862000D02*
D03*
X1010000D02*
D03*
X935000D02*
D03*
D45*
X1355000Y395000D02*
D03*
Y405000D02*
D03*
X1287000Y441284D02*
D03*
D46*
X1355000Y385000D02*
D03*
D47*
X1297000Y441284D02*
D03*
D48*
X1257000Y388567D02*
D03*
X1325000Y427716D02*
D03*
D49*
X1257000Y424000D02*
D03*
X1325000Y392284D02*
D03*
D50*
X1259567Y340000D02*
D03*
X1089567Y390000D02*
D03*
D51*
X1330433Y340000D02*
D03*
X1156496Y350000D02*
D03*
X1093504D02*
D03*
X975000Y333504D02*
D03*
Y396496D02*
D03*
X1160433Y390000D02*
D03*
X999504Y355000D02*
D03*
X1062496D02*
D03*
X998504Y385000D02*
D03*
X1061496D02*
D03*
X1185504Y369000D02*
D03*
X1248496D02*
D03*
X941496Y335000D02*
D03*
X878504D02*
D03*
X846496Y329000D02*
D03*
X783504D02*
D03*
X851496Y380000D02*
D03*
X788504D02*
D03*
D52*
X1225000Y336000D02*
D03*
X1195000D02*
D03*
X1039000Y335000D02*
D03*
X1009000D02*
D03*
X937000Y358000D02*
D03*
X907000D02*
D03*
X897000Y380000D02*
D03*
X867000D02*
D03*
D53*
X1488600Y448500D02*
D03*
X1520100Y448000D02*
D03*
X1504100D02*
D03*
X1442100Y448500D02*
D03*
X1457600Y447500D02*
D03*
X1410600Y448500D02*
D03*
X1426100Y448000D02*
D03*
X1379600Y449500D02*
D03*
X1395100Y449000D02*
D03*
X1598500Y363600D02*
D03*
X1598000Y379100D02*
D03*
Y395100D02*
D03*
X1597500Y332600D02*
D03*
X1599000Y270100D02*
D03*
X1599500Y254600D02*
D03*
X1598500Y317100D02*
D03*
X1598000Y301100D02*
D03*
X1598500Y285600D02*
D03*
X1521300Y202000D02*
D03*
X1505300D02*
D03*
X1489800Y201500D02*
D03*
X1458800Y202500D02*
D03*
X1443300Y201500D02*
D03*
X1427300Y202000D02*
D03*
X1411800Y201500D02*
D03*
X1396300Y201000D02*
D03*
X1380800Y200500D02*
D03*
X767500Y202000D02*
D03*
X751500D02*
D03*
X736000Y201500D02*
D03*
X705000Y202500D02*
D03*
X689500Y201500D02*
D03*
X673500Y202000D02*
D03*
X658000Y201500D02*
D03*
X642500Y201000D02*
D03*
X627000Y200500D02*
D03*
X356000Y448500D02*
D03*
X387500Y448000D02*
D03*
X371500D02*
D03*
X309500Y448500D02*
D03*
X325000Y447500D02*
D03*
X278000Y448500D02*
D03*
X293500Y448000D02*
D03*
X247000Y449500D02*
D03*
X262500Y449000D02*
D03*
X1145500Y202000D02*
D03*
X1129500D02*
D03*
X1114000Y201500D02*
D03*
X1083000Y202500D02*
D03*
X1067500Y201500D02*
D03*
X1051500Y202000D02*
D03*
X1036000Y201500D02*
D03*
X1020500Y201000D02*
D03*
X1005000Y200500D02*
D03*
X386300Y202000D02*
D03*
X370300D02*
D03*
X354800Y201500D02*
D03*
X323800Y202500D02*
D03*
X308300Y201500D02*
D03*
X292300Y202000D02*
D03*
X276800Y201500D02*
D03*
X261300Y201000D02*
D03*
X245800Y200500D02*
D03*
X736000Y448500D02*
D03*
X767500Y448000D02*
D03*
X751500D02*
D03*
X689500Y448500D02*
D03*
X705000Y447500D02*
D03*
X658000Y448500D02*
D03*
X673500Y448000D02*
D03*
X627000Y449500D02*
D03*
X642500Y449000D02*
D03*
M02*
