G04 Layer_Color=255*
%FSLAX25Y25*%
%MOIN*%
G70*
G01*
G75*
%ADD10O,0.10000X0.31500*%
%ADD11R,0.10000X0.31500*%
%ADD12O,0.31500X0.10000*%
%ADD13R,0.31500X0.10000*%
%ADD15C,0.06693*%
%ADD16R,0.06693X0.06693*%
%ADD17C,0.06299*%
%ADD18R,0.06299X0.06299*%
%ADD19C,0.05906*%
%ADD20R,0.05906X0.05906*%
%ADD21R,0.05906X0.05906*%
%ADD22R,0.06496X0.06496*%
%ADD23C,0.06496*%
%ADD24C,0.06000*%
%ADD25C,0.12992*%
%ADD26C,0.13780*%
%ADD27C,0.07874*%
D10*
X1504400Y465000D02*
D03*
X1442000D02*
D03*
X1488800D02*
D03*
X1457600D02*
D03*
X1426400D02*
D03*
X1410800D02*
D03*
X1395200D02*
D03*
X1490000Y185000D02*
D03*
X1505600D02*
D03*
X1458800D02*
D03*
X1443200D02*
D03*
X1427600D02*
D03*
X1412000D02*
D03*
X1396400D02*
D03*
X736200D02*
D03*
X751800D02*
D03*
X705000D02*
D03*
X689400D02*
D03*
X673800D02*
D03*
X658200D02*
D03*
X642600D02*
D03*
X371800Y465000D02*
D03*
X309400D02*
D03*
X356200D02*
D03*
X325000D02*
D03*
X293800D02*
D03*
X262600D02*
D03*
X278200D02*
D03*
X1114200Y185000D02*
D03*
X1129800D02*
D03*
X1083000D02*
D03*
X1067400D02*
D03*
X1051800D02*
D03*
X1036200D02*
D03*
X1020600D02*
D03*
X355000D02*
D03*
X370600D02*
D03*
X323800D02*
D03*
X308200D02*
D03*
X292600D02*
D03*
X277000D02*
D03*
X261400D02*
D03*
X751800Y465000D02*
D03*
X689400D02*
D03*
X736200D02*
D03*
X705000D02*
D03*
X673800D02*
D03*
X642600D02*
D03*
X658200D02*
D03*
D11*
X1520000D02*
D03*
X1379600D02*
D03*
X1521200Y185000D02*
D03*
X1380800D02*
D03*
X767400D02*
D03*
X627000D02*
D03*
X387400Y465000D02*
D03*
X247000D02*
D03*
X1145400Y185000D02*
D03*
X1005000D02*
D03*
X386200D02*
D03*
X245800D02*
D03*
X767400Y465000D02*
D03*
X627000D02*
D03*
D12*
X1615000Y317000D02*
D03*
Y332600D02*
D03*
Y379400D02*
D03*
Y363800D02*
D03*
Y270200D02*
D03*
Y285800D02*
D03*
Y301400D02*
D03*
D13*
Y395000D02*
D03*
Y254600D02*
D03*
D15*
X1205000Y410000D02*
D03*
X1195000D02*
D03*
D16*
X1185000D02*
D03*
D17*
X882000D02*
D03*
X872000D02*
D03*
X1030000D02*
D03*
X1020000D02*
D03*
X955000D02*
D03*
X945000D02*
D03*
D18*
X862000D02*
D03*
X1010000D02*
D03*
X935000D02*
D03*
D19*
X1355000Y395000D02*
D03*
Y405000D02*
D03*
X1287000Y441284D02*
D03*
D20*
X1355000Y385000D02*
D03*
D21*
X1297000Y441284D02*
D03*
D22*
X1257000Y388567D02*
D03*
X1325000Y427716D02*
D03*
D23*
X1257000Y424000D02*
D03*
X1325000Y392284D02*
D03*
D24*
X322056Y291000D02*
D03*
X309200Y281500D02*
D03*
X294000Y272500D02*
D03*
X278000Y263500D02*
D03*
X263000Y255500D02*
D03*
X247500Y247500D02*
D03*
D25*
X1259567Y340000D02*
D03*
X1089567Y390000D02*
D03*
D26*
X1330433Y340000D02*
D03*
X1156496Y350000D02*
D03*
X1093504D02*
D03*
X975000Y333504D02*
D03*
Y396496D02*
D03*
X1160433Y390000D02*
D03*
X999504Y355000D02*
D03*
X1062496D02*
D03*
X998504Y385000D02*
D03*
X1061496D02*
D03*
X1185504Y369000D02*
D03*
X1248496D02*
D03*
X941496Y335000D02*
D03*
X878504D02*
D03*
X846496Y329000D02*
D03*
X783504D02*
D03*
X851496Y380000D02*
D03*
X788504D02*
D03*
D27*
X1225000Y336000D02*
D03*
X1195000D02*
D03*
X1039000Y335000D02*
D03*
X1009000D02*
D03*
X937000Y358000D02*
D03*
X907000D02*
D03*
X897000Y380000D02*
D03*
X867000D02*
D03*
M02*
