G04 Layer_Color=16711935*
%FSLAX25Y25*%
%MOIN*%
G70*
G01*
G75*
%ADD29C,0.00984*%
%ADD32C,0.01000*%
D29*
X187000Y223996D02*
G03*
X207000Y203996I20000J0D01*
G01*
X187000Y223996D02*
Y448091D01*
D32*
X1580854Y424098D02*
G03*
X1580854Y424098I-7000J0D01*
G01*
Y227598D02*
G03*
X1580854Y227598I-7000J0D01*
G01*
X1103854Y424098D02*
G03*
X1103854Y424098I-7000J0D01*
G01*
Y227598D02*
G03*
X1103854Y227598I-7000J0D01*
G01*
X725854Y424098D02*
G03*
X725854Y424098I-7000J0D01*
G01*
X726354Y228098D02*
G03*
X726354Y228098I-7000J0D01*
G01*
X348354Y424098D02*
G03*
X348354Y424098I-7000J0D01*
G01*
Y227598D02*
G03*
X348354Y227598I-7000J0D01*
G01*
X779913Y448091D02*
X849913D01*
X1220913D02*
X1366106D01*
X850000Y479000D02*
X1220913D01*
Y448091D02*
Y479587D01*
X849913Y448091D02*
X850000Y480000D01*
X207000Y203996D02*
X232882D01*
X1599020Y409961D02*
X1630516D01*
X1599020D02*
Y448091D01*
X1630516Y355591D02*
Y409961D01*
X1599020Y355591D02*
X1630516D01*
X1599020Y341811D02*
Y355591D01*
Y341811D02*
X1630516D01*
Y240669D02*
Y341811D01*
X1599020Y240669D02*
X1630516D01*
X1599020Y203996D02*
Y240669D01*
X1535406Y203996D02*
X1599020D01*
X1535406Y448091D02*
X1599020D01*
X1535406D02*
Y479587D01*
X1481028D02*
X1535406D01*
Y172500D02*
Y203996D01*
X1481028Y172500D02*
X1535406D01*
X1481028D02*
Y203996D01*
Y448091D02*
Y479587D01*
X1467252Y448091D02*
X1481028D01*
X1467252Y172500D02*
Y203996D01*
Y448091D02*
Y479587D01*
X1366106D02*
X1467252D01*
X1366106Y172500D02*
X1467252D01*
X1366106D02*
Y203996D01*
Y448091D02*
Y479587D01*
X1157642Y203996D02*
X1366106D01*
X1157642Y172500D02*
Y203996D01*
X1103272Y172500D02*
X1157642D01*
X1103272D02*
Y203996D01*
X1089496D02*
X1103272D01*
X1089496Y172500D02*
Y203996D01*
X988350Y172500D02*
X1089496D01*
X988350D02*
Y203996D01*
X779913D02*
X988350D01*
X779913Y172500D02*
Y203996D01*
X725543Y172500D02*
X779913D01*
X725543D02*
Y203996D01*
X711768D02*
X725543D01*
X711768Y172500D02*
Y203996D01*
X610622Y172500D02*
X711768D01*
X610622D02*
Y203996D01*
X402173D02*
X610622D01*
Y448091D02*
Y479587D01*
X711768D01*
Y448091D02*
Y479587D01*
Y448091D02*
X725543D01*
Y479587D01*
X779913D01*
Y448091D02*
Y479587D01*
X402173Y448091D02*
X610622D01*
X402173D02*
Y479587D01*
X347807D02*
X402173D01*
X347807Y448091D02*
Y479587D01*
X334028Y448091D02*
X347807D01*
X334028D02*
Y479587D01*
X232882D02*
X334028D01*
X232882Y448091D02*
Y479587D01*
X187000Y448091D02*
X232882D01*
X402173Y172500D02*
Y203996D01*
X347807Y172500D02*
X402173D01*
X347807D02*
Y203996D01*
X334028D02*
X347807D01*
X334028Y172500D02*
Y203996D01*
X232882Y172500D02*
X334028D01*
X232882D02*
Y203996D01*
X1467252D02*
X1481028D01*
M02*
