G04 Layer_Physical_Order=1*
G04 Layer_Color=255*
%FSLAX25Y25*%
%MOIN*%
G70*
G01*
G75*
%ADD10O,0.10000X0.31500*%
%ADD11R,0.10000X0.31500*%
%ADD12O,0.31500X0.10000*%
%ADD13R,0.31500X0.10000*%
%ADD14C,0.05000*%
%ADD15C,0.06693*%
%ADD16R,0.06693X0.06693*%
%ADD17C,0.06299*%
%ADD18R,0.06299X0.06299*%
%ADD19C,0.05906*%
%ADD20R,0.05906X0.05906*%
%ADD21R,0.05906X0.05906*%
%ADD22R,0.06496X0.06496*%
%ADD23C,0.06496*%
%ADD24C,0.06000*%
%ADD25C,0.12992*%
%ADD26C,0.13780*%
%ADD27C,0.07874*%
%ADD28C,0.05000*%
G36*
X866768Y348232D02*
X852319Y332271D01*
X848308Y335981D01*
X863232Y351768D01*
X866768Y348232D01*
D02*
G37*
G36*
X1601978Y281342D02*
X1601184Y281790D01*
X1600339Y282191D01*
X1599444Y282544D01*
X1598499Y282851D01*
X1597504Y283110D01*
X1596459Y283323D01*
X1594219Y283606D01*
X1593023Y283676D01*
X1591778Y283700D01*
Y288700D01*
X1593046Y288719D01*
X1596617Y288997D01*
X1597729Y289165D01*
X1599836Y289611D01*
X1600831Y289890D01*
X1602704Y290559D01*
X1601978Y281342D01*
D02*
G37*
G36*
X1188111Y364386D02*
X1187982Y363736D01*
X1187869Y362715D01*
X1187688Y359557D01*
X1187500Y345158D01*
X1182500D01*
X1181746Y364664D01*
X1188254D01*
X1188111Y364386D01*
D02*
G37*
G36*
X1601978Y359342D02*
X1601184Y359790D01*
X1600339Y360191D01*
X1599444Y360544D01*
X1598499Y360851D01*
X1597504Y361110D01*
X1596459Y361323D01*
X1594219Y361606D01*
X1593023Y361676D01*
X1591778Y361700D01*
Y366700D01*
X1593046Y366719D01*
X1596617Y366997D01*
X1597729Y367165D01*
X1599836Y367611D01*
X1600831Y367889D01*
X1602704Y368559D01*
X1601978Y359342D01*
D02*
G37*
G36*
X1366106Y325106D02*
X1366000Y325000D01*
X1192230D01*
X1192038Y325462D01*
X1196970Y330393D01*
X1197283Y330488D01*
X1198314Y331040D01*
X1199218Y331782D01*
X1199960Y332686D01*
X1200512Y333717D01*
X1200851Y334836D01*
X1200966Y336000D01*
X1200851Y337164D01*
X1200512Y338283D01*
X1199960Y339314D01*
X1199218Y340218D01*
X1198314Y340960D01*
X1197283Y341512D01*
X1196164Y341851D01*
X1195000Y341966D01*
X1194646Y341931D01*
X1189564Y347013D01*
X1189727Y359486D01*
X1189827Y361231D01*
X1190467Y361573D01*
X1191820Y362684D01*
X1192931Y364037D01*
X1193757Y365582D01*
X1194265Y367257D01*
X1194437Y369000D01*
X1194265Y370743D01*
X1193775Y372357D01*
X1208209Y386791D01*
X1208931Y387731D01*
X1209384Y388825D01*
X1209539Y390000D01*
Y407133D01*
X1209670Y407304D01*
X1210209Y408604D01*
X1210393Y410000D01*
X1210209Y411396D01*
X1209670Y412696D01*
X1208813Y413813D01*
X1207696Y414670D01*
X1206396Y415209D01*
X1205000Y415393D01*
X1203604Y415209D01*
X1202304Y414670D01*
X1201187Y413813D01*
X1200330Y412696D01*
X1199791Y411396D01*
X1199748Y411067D01*
X1199244D01*
X1199235Y411135D01*
X1198797Y412192D01*
X1198100Y413100D01*
X1197192Y413797D01*
X1196135Y414235D01*
X1196000Y414252D01*
Y410000D01*
Y405748D01*
X1196135Y405765D01*
X1197192Y406203D01*
X1198100Y406900D01*
X1198797Y407808D01*
X1199235Y408865D01*
X1199244Y408933D01*
X1199748D01*
X1199791Y408604D01*
X1200330Y407304D01*
X1200461Y407133D01*
Y391880D01*
X1186423Y377842D01*
X1185504Y377933D01*
X1183761Y377761D01*
X1182086Y377253D01*
X1180541Y376427D01*
X1179187Y375316D01*
X1178077Y373963D01*
X1177251Y372418D01*
X1176743Y370743D01*
X1176571Y369000D01*
X1176743Y367257D01*
X1177251Y365582D01*
X1178077Y364037D01*
X1179187Y362684D01*
X1179802Y362180D01*
X1180462Y345079D01*
X1180483Y344993D01*
X1180616Y343983D01*
X1181069Y342888D01*
X1181791Y341948D01*
X1188739Y335000D01*
X1183777Y330039D01*
X1043102D01*
X1042923Y330539D01*
X1043218Y330782D01*
X1043960Y331686D01*
X1044512Y332717D01*
X1044851Y333836D01*
X1044966Y335000D01*
X1044851Y336164D01*
X1044512Y337283D01*
X1044224Y337821D01*
Y361309D01*
X1059293Y376378D01*
X1059753Y376239D01*
X1061496Y376067D01*
X1063239Y376239D01*
X1064915Y376747D01*
X1066459Y377573D01*
X1067813Y378684D01*
X1068923Y380037D01*
X1069749Y381582D01*
X1070257Y383257D01*
X1070429Y385000D01*
X1070257Y386743D01*
X1069749Y388418D01*
X1068923Y389963D01*
X1067813Y391316D01*
X1066459Y392427D01*
X1064915Y393253D01*
X1063239Y393761D01*
X1061496Y393933D01*
X1059753Y393761D01*
X1058078Y393253D01*
X1056533Y392427D01*
X1055180Y391316D01*
X1055106Y391313D01*
X1034976Y411443D01*
X1034498Y412597D01*
X1033673Y413673D01*
X1032597Y414498D01*
X1031479Y414961D01*
X1031579Y415461D01*
X1057687D01*
X1081261Y391887D01*
X1081194Y391666D01*
X1081030Y390000D01*
X1081194Y388334D01*
X1081680Y386733D01*
X1082469Y385257D01*
X1083530Y383963D01*
X1083554Y383477D01*
X1063874Y363797D01*
X1062496Y363933D01*
X1060753Y363761D01*
X1059078Y363253D01*
X1057533Y362427D01*
X1056180Y361316D01*
X1055069Y359963D01*
X1054243Y358418D01*
X1053735Y356743D01*
X1053563Y355000D01*
X1053735Y353257D01*
X1054243Y351582D01*
X1055069Y350037D01*
X1056180Y348684D01*
X1057533Y347573D01*
X1059078Y346747D01*
X1060753Y346239D01*
X1062496Y346067D01*
X1064239Y346239D01*
X1065915Y346747D01*
X1067459Y347573D01*
X1068812Y348684D01*
X1069923Y350037D01*
X1070749Y351582D01*
X1071257Y353257D01*
X1071429Y355000D01*
X1071257Y356743D01*
X1070885Y357970D01*
X1092776Y379861D01*
X1092776Y379861D01*
X1093498Y380802D01*
X1093951Y381896D01*
X1094066Y382771D01*
X1094310Y382902D01*
X1095604Y383963D01*
X1096665Y385257D01*
X1096774Y385461D01*
X1100000D01*
X1101175Y385616D01*
X1102269Y386069D01*
X1103209Y386791D01*
X1154971Y438552D01*
X1255029D01*
X1265461Y428120D01*
Y394539D01*
X1258433D01*
X1258433Y394539D01*
X1257258Y394384D01*
X1256164Y393931D01*
X1256013Y393815D01*
X1251752D01*
Y383319D01*
X1262248D01*
Y385461D01*
X1270000D01*
X1271175Y385616D01*
X1272269Y386069D01*
X1273209Y386791D01*
X1273931Y387731D01*
X1274384Y388825D01*
X1274539Y390000D01*
Y430000D01*
X1274384Y431175D01*
X1273931Y432269D01*
X1273209Y433209D01*
X1261339Y445080D01*
X1261531Y445542D01*
X1283636D01*
X1283797Y445068D01*
X1283468Y444816D01*
X1282674Y443781D01*
X1282175Y442576D01*
X1282005Y441284D01*
X1282175Y439991D01*
X1282674Y438786D01*
X1283468Y437751D01*
X1284502Y436957D01*
X1285707Y436458D01*
X1287000Y436288D01*
X1288293Y436458D01*
X1289498Y436957D01*
X1290532Y437751D01*
X1291326Y438786D01*
X1291825Y439991D01*
X1291996Y441284D01*
X1291825Y442576D01*
X1291326Y443781D01*
X1290532Y444816D01*
X1290203Y445068D01*
X1290364Y445542D01*
X1292674D01*
X1293047Y445236D01*
X1293047Y445042D01*
Y442283D01*
X1297000D01*
X1300953D01*
Y445042D01*
X1300953Y445236D01*
X1301326Y445542D01*
X1366106D01*
Y325106D01*
D02*
G37*
G36*
X1599274Y250200D02*
X1599198Y250675D01*
X1598973Y251100D01*
X1598597Y251475D01*
X1598071Y251800D01*
X1597394Y252075D01*
X1596568Y252300D01*
X1595592Y252475D01*
X1594465Y252600D01*
X1591762Y252700D01*
Y257700D01*
X1593187Y257719D01*
X1596562Y258002D01*
X1597387Y258172D01*
X1598062Y258380D01*
X1598587Y258625D01*
X1598962Y258908D01*
X1599187Y259229D01*
X1599262Y259588D01*
X1599274Y250200D01*
D02*
G37*
G36*
X1601978Y265742D02*
X1601159Y266209D01*
X1600303Y266627D01*
X1599412Y266996D01*
X1598485Y267315D01*
X1597523Y267585D01*
X1596525Y267807D01*
X1595492Y267979D01*
X1593319Y268175D01*
X1592179Y268200D01*
X1591786Y273200D01*
X1593096Y273218D01*
X1596736Y273481D01*
X1597852Y273640D01*
X1599938Y274062D01*
X1600909Y274325D01*
X1602704Y274958D01*
X1601978Y265742D01*
D02*
G37*
G36*
X1218364Y448091D02*
X1218379Y448016D01*
X1218062Y447629D01*
X1153091D01*
X1153091Y447629D01*
X1151916Y447475D01*
X1150821Y447021D01*
X1149881Y446300D01*
X1149881Y446300D01*
X1098120Y394539D01*
X1096774D01*
X1096665Y394743D01*
X1095604Y396037D01*
X1094310Y397098D01*
X1092834Y397887D01*
X1091232Y398373D01*
X1089567Y398537D01*
X1087901Y398373D01*
X1087680Y398306D01*
X1062776Y423209D01*
X1061836Y423931D01*
X1060742Y424384D01*
X1059567Y424539D01*
X1025000D01*
X1025000Y424539D01*
X1023825Y424384D01*
X1022731Y423931D01*
X1021791Y423209D01*
X1016791Y418209D01*
X1016069Y417269D01*
X1015616Y416175D01*
X1015461Y415000D01*
Y412499D01*
X1014983Y411344D01*
X1014806Y410000D01*
X1014983Y408656D01*
X1015502Y407403D01*
X1016327Y406327D01*
X1017403Y405502D01*
X1018656Y404983D01*
X1020000Y404806D01*
X1021344Y404983D01*
X1022597Y405502D01*
X1023673Y406327D01*
X1024498Y407403D01*
X1024750Y408011D01*
X1025250D01*
X1025502Y407403D01*
X1026327Y406327D01*
X1027403Y405502D01*
X1028557Y405024D01*
X1051476Y382105D01*
X1051492Y381414D01*
X1036476Y366398D01*
X1035754Y365458D01*
X1035301Y364364D01*
X1035146Y363189D01*
Y339518D01*
X1034782Y339218D01*
X1034040Y338314D01*
X1033488Y337283D01*
X1033149Y336164D01*
X1033034Y335000D01*
X1033149Y333836D01*
X1033488Y332717D01*
X1034040Y331686D01*
X1034782Y330782D01*
X1035077Y330539D01*
X1034898Y330039D01*
X1011230D01*
X1011131Y330539D01*
X1011490Y330687D01*
X1012521Y331479D01*
X1013313Y332510D01*
X1013810Y333711D01*
X1013848Y334000D01*
X1009000D01*
X1004152D01*
X1004190Y333711D01*
X1004688Y332510D01*
X1005479Y331479D01*
X1006510Y330687D01*
X1006869Y330539D01*
X1006770Y330039D01*
X984884D01*
X983622Y331301D01*
X983761Y331761D01*
X983933Y333504D01*
X983761Y335247D01*
X983253Y336922D01*
X982427Y338467D01*
X981316Y339820D01*
X979963Y340931D01*
X978418Y341757D01*
X976743Y342265D01*
X975000Y342437D01*
X973257Y342265D01*
X972797Y342126D01*
X949539Y365384D01*
Y385000D01*
X949539Y385000D01*
X949384Y386175D01*
X948931Y387269D01*
X948209Y388209D01*
X948209Y388210D01*
X939539Y396880D01*
Y404850D01*
X940150D01*
Y415150D01*
X929850D01*
Y404850D01*
X930461D01*
Y395000D01*
X930616Y393825D01*
X931069Y392731D01*
X931791Y391791D01*
X940461Y383120D01*
Y363504D01*
X940616Y362329D01*
X940768Y361962D01*
X940357Y361647D01*
X939490Y362313D01*
X938289Y362810D01*
X938000Y362848D01*
Y359000D01*
X941848D01*
X941810Y359289D01*
X941613Y359765D01*
X942036Y360049D01*
X966378Y335707D01*
X966239Y335247D01*
X966067Y333504D01*
X966239Y331761D01*
X966747Y330085D01*
X967573Y328541D01*
X968684Y327187D01*
X970037Y326077D01*
X971116Y325500D01*
X970991Y325000D01*
X854924D01*
X854667Y325429D01*
X854749Y325582D01*
X855257Y327257D01*
X855429Y329000D01*
X855257Y330743D01*
X854863Y332043D01*
X867010Y345461D01*
X894685D01*
X895860Y345616D01*
X896955Y346069D01*
X897894Y346791D01*
X903984Y352880D01*
X904717Y352488D01*
X905836Y352149D01*
X906847Y352049D01*
X927106Y331791D01*
X928045Y331069D01*
X929140Y330616D01*
X930315Y330461D01*
X933842D01*
X934069Y330037D01*
X935180Y328684D01*
X936533Y327573D01*
X938078Y326747D01*
X939753Y326239D01*
X941496Y326067D01*
X943239Y326239D01*
X944915Y326747D01*
X946459Y327573D01*
X947812Y328684D01*
X948923Y330037D01*
X949749Y331582D01*
X950257Y333257D01*
X950429Y335000D01*
X950257Y336743D01*
X949749Y338418D01*
X948923Y339963D01*
X947812Y341316D01*
X946459Y342427D01*
X944915Y343253D01*
X943239Y343761D01*
X941496Y343933D01*
X939753Y343761D01*
X938078Y343253D01*
X936533Y342427D01*
X935180Y341316D01*
X934069Y339963D01*
X933842Y339539D01*
X932195D01*
X912882Y358852D01*
X912851Y359164D01*
X912512Y360283D01*
X912120Y361016D01*
X918052Y366948D01*
X918052Y366948D01*
X918773Y367888D01*
X919227Y368983D01*
X919381Y370158D01*
X919381Y370158D01*
Y414962D01*
X925880Y421461D01*
X949120D01*
X951461Y419120D01*
Y413775D01*
X951327Y413673D01*
X950502Y412597D01*
X949983Y411344D01*
X949806Y410000D01*
X949983Y408656D01*
X950502Y407403D01*
X951327Y406327D01*
X952403Y405502D01*
X953656Y404983D01*
X955000Y404806D01*
X956344Y404983D01*
X957597Y405502D01*
X958673Y406327D01*
X959498Y407403D01*
X960017Y408656D01*
X960072Y409071D01*
X960384Y409825D01*
X960539Y411000D01*
Y421000D01*
X960539Y421000D01*
X960384Y422175D01*
X959931Y423269D01*
X959209Y424209D01*
X954209Y429209D01*
X953269Y429931D01*
X952175Y430384D01*
X951000Y430539D01*
X924000D01*
X922825Y430384D01*
X921731Y429931D01*
X920791Y429209D01*
X911633Y420052D01*
X910912Y419112D01*
X910458Y418017D01*
X910304Y416843D01*
Y372038D01*
X901791Y363524D01*
X901791Y363524D01*
X892805Y354539D01*
X865000D01*
X863825Y354384D01*
X862731Y353931D01*
X861795Y353213D01*
X861790Y353210D01*
X861789Y353208D01*
X846512Y337931D01*
X846496Y337933D01*
X845118Y337797D01*
X837539Y345376D01*
Y379120D01*
X843675Y385256D01*
X844069Y384963D01*
X843243Y383418D01*
X842735Y381743D01*
X842563Y380000D01*
X842735Y378257D01*
X843243Y376582D01*
X844069Y375037D01*
X845180Y373684D01*
X846533Y372573D01*
X848078Y371747D01*
X849753Y371239D01*
X851496Y371067D01*
X853239Y371239D01*
X854914Y371747D01*
X856459Y372573D01*
X857812Y373684D01*
X858923Y375037D01*
X859150Y375461D01*
X863172D01*
X863686Y375040D01*
X864717Y374488D01*
X865836Y374149D01*
X867000Y374034D01*
X868164Y374149D01*
X869283Y374488D01*
X870314Y375040D01*
X871218Y375782D01*
X871960Y376686D01*
X872512Y377717D01*
X872675Y378256D01*
X885209Y390791D01*
X885931Y391731D01*
X886384Y392825D01*
X886539Y394000D01*
Y407501D01*
X887017Y408656D01*
X887194Y410000D01*
X887017Y411344D01*
X886498Y412597D01*
X885673Y413673D01*
X884597Y414498D01*
X883344Y415017D01*
X882000Y415194D01*
X880656Y415017D01*
X879403Y414498D01*
X878327Y413673D01*
X877502Y412597D01*
X876983Y411344D01*
X876806Y410000D01*
X876983Y408656D01*
X877461Y407501D01*
Y395880D01*
X867498Y385917D01*
X867000Y385966D01*
X865836Y385851D01*
X864717Y385512D01*
X863686Y384960D01*
X863172Y384539D01*
X859150D01*
X858923Y384963D01*
X857812Y386316D01*
X856459Y387427D01*
X854914Y388253D01*
X853239Y388761D01*
X851496Y388933D01*
X849753Y388761D01*
X848078Y388253D01*
X846533Y387427D01*
X846240Y387821D01*
X863269Y404850D01*
X867150D01*
Y415150D01*
X856850D01*
Y411269D01*
X829791Y384209D01*
X829069Y383269D01*
X828616Y382175D01*
X828461Y381000D01*
Y343496D01*
X828616Y342321D01*
X829069Y341227D01*
X829791Y340287D01*
X838107Y331970D01*
X837735Y330743D01*
X837563Y329000D01*
X837735Y327257D01*
X838243Y325582D01*
X838325Y325429D01*
X838068Y325000D01*
X790798D01*
X790541Y325429D01*
X790828Y325966D01*
X791280Y327453D01*
X791333Y328000D01*
X783504D01*
X775674D01*
X775728Y327453D01*
X776180Y325966D01*
X776467Y325429D01*
X776210Y325000D01*
X775000D01*
Y447000D01*
X777635D01*
X778111Y446288D01*
X778938Y445736D01*
X779913Y445542D01*
X849913D01*
X850398Y445638D01*
X850882Y445733D01*
X850885Y445735D01*
X850889Y445736D01*
X851299Y446010D01*
X851711Y446283D01*
X851713Y446286D01*
X851716Y446288D01*
X851990Y446699D01*
X852266Y447109D01*
X852266Y447112D01*
X852268Y447115D01*
X852365Y447600D01*
X852462Y448084D01*
X852539Y476451D01*
X1218364D01*
Y448091D01*
D02*
G37*
%LPC*%
G36*
X1092504Y357829D02*
X1091957Y357776D01*
X1090470Y357325D01*
X1089099Y356592D01*
X1087898Y355606D01*
X1086912Y354404D01*
X1086180Y353034D01*
X1085728Y351547D01*
X1085674Y351000D01*
X1092504D01*
Y357829D01*
D02*
G37*
G36*
X1094504Y357829D02*
Y351000D01*
X1101333D01*
X1101280Y351547D01*
X1100828Y353034D01*
X1100096Y354404D01*
X1099110Y355606D01*
X1097908Y356592D01*
X1096538Y357325D01*
X1095051Y357776D01*
X1094504Y357829D01*
D02*
G37*
G36*
X1256326Y368000D02*
X1249496D01*
Y361171D01*
X1250043Y361224D01*
X1251530Y361676D01*
X1252901Y362408D01*
X1254102Y363394D01*
X1255088Y364596D01*
X1255820Y365966D01*
X1256272Y367453D01*
X1256326Y368000D01*
D02*
G37*
G36*
X1247496D02*
X1240667D01*
X1240720Y367453D01*
X1241172Y365966D01*
X1241904Y364596D01*
X1242890Y363394D01*
X1244092Y362408D01*
X1245462Y361676D01*
X1246949Y361224D01*
X1247496Y361171D01*
Y368000D01*
D02*
G37*
G36*
X1249496Y376829D02*
Y370000D01*
X1256326D01*
X1256272Y370547D01*
X1255820Y372034D01*
X1255088Y373405D01*
X1254102Y374606D01*
X1252901Y375592D01*
X1251530Y376325D01*
X1250043Y376776D01*
X1249496Y376829D01*
D02*
G37*
G36*
X1247496D02*
X1246949Y376776D01*
X1245462Y376325D01*
X1244092Y375592D01*
X1242890Y374606D01*
X1241904Y373405D01*
X1241172Y372034D01*
X1240720Y370547D01*
X1240667Y370000D01*
X1247496D01*
Y376829D01*
D02*
G37*
G36*
X1229848Y335000D02*
X1226000D01*
Y331152D01*
X1226289Y331190D01*
X1227490Y331687D01*
X1228521Y332479D01*
X1229313Y333510D01*
X1229810Y334711D01*
X1229848Y335000D01*
D02*
G37*
G36*
X1224000D02*
X1220152D01*
X1220190Y334711D01*
X1220687Y333510D01*
X1221479Y332479D01*
X1222510Y331687D01*
X1223711Y331190D01*
X1224000Y331152D01*
Y335000D01*
D02*
G37*
G36*
X1258567Y339000D02*
X1252133D01*
X1252179Y338530D01*
X1252608Y337118D01*
X1253304Y335815D01*
X1254241Y334674D01*
X1255382Y333737D01*
X1256684Y333041D01*
X1258097Y332612D01*
X1258567Y332566D01*
Y339000D01*
D02*
G37*
G36*
X1267001D02*
X1260567D01*
Y332566D01*
X1261036Y332612D01*
X1262449Y333041D01*
X1263752Y333737D01*
X1264893Y334674D01*
X1265830Y335815D01*
X1266526Y337118D01*
X1266955Y338530D01*
X1267001Y339000D01*
D02*
G37*
G36*
X1190000Y429539D02*
X1188825Y429384D01*
X1187731Y428931D01*
X1186791Y428209D01*
X1181791Y423209D01*
X1181069Y422269D01*
X1180616Y421175D01*
X1180476Y420109D01*
X1180461Y420045D01*
X1180388Y416708D01*
X1180274Y415346D01*
X1179653D01*
Y413471D01*
X1179626Y413335D01*
X1179627Y413329D01*
X1179626Y413324D01*
X1179653Y413191D01*
Y406864D01*
X1179629Y406766D01*
X1179636Y406715D01*
X1179626Y406666D01*
X1179653Y406529D01*
Y404654D01*
X1180205D01*
X1180453Y400524D01*
X1180461Y399154D01*
X1180461Y399152D01*
Y396880D01*
X1153287Y369706D01*
X1152565Y368765D01*
X1152112Y367671D01*
X1151957Y366496D01*
Y357654D01*
X1151533Y357427D01*
X1150180Y356316D01*
X1149069Y354963D01*
X1148243Y353418D01*
X1147735Y351743D01*
X1147563Y350000D01*
X1147735Y348257D01*
X1148243Y346582D01*
X1149069Y345037D01*
X1150180Y343684D01*
X1151533Y342573D01*
X1153078Y341747D01*
X1154753Y341239D01*
X1156496Y341067D01*
X1158239Y341239D01*
X1159914Y341747D01*
X1161459Y342573D01*
X1162813Y343684D01*
X1163923Y345037D01*
X1164749Y346582D01*
X1165257Y348257D01*
X1165429Y350000D01*
X1165257Y351743D01*
X1164749Y353418D01*
X1163923Y354963D01*
X1162813Y356316D01*
X1161459Y357427D01*
X1161035Y357654D01*
Y364616D01*
X1188209Y391791D01*
X1188931Y392731D01*
X1189384Y393825D01*
X1189539Y395000D01*
Y399128D01*
X1189613Y402895D01*
X1189738Y404577D01*
X1189748Y404654D01*
X1190347D01*
Y406529D01*
X1190374Y406666D01*
X1190364Y406715D01*
X1190371Y406766D01*
X1190347Y406864D01*
Y408570D01*
X1190847Y408670D01*
X1191203Y407808D01*
X1191900Y406900D01*
X1192808Y406203D01*
X1193865Y405765D01*
X1194000Y405748D01*
Y410000D01*
Y414252D01*
X1193865Y414235D01*
X1192808Y413797D01*
X1191900Y413100D01*
X1191203Y412192D01*
X1190847Y411330D01*
X1190347Y411430D01*
Y413191D01*
X1190374Y413324D01*
X1190373Y413329D01*
X1190374Y413335D01*
X1190347Y413471D01*
Y415346D01*
X1189781D01*
X1189590Y418171D01*
X1191880Y420461D01*
X1218120D01*
X1230461Y408120D01*
Y360000D01*
X1230616Y358825D01*
X1231069Y357731D01*
X1231791Y356791D01*
X1236791Y351791D01*
X1237731Y351069D01*
X1238825Y350616D01*
X1240000Y350461D01*
X1240000Y350461D01*
X1254364D01*
X1255539Y350616D01*
X1256634Y351069D01*
X1257574Y351791D01*
X1281244Y375461D01*
X1312716D01*
X1313891Y375616D01*
X1314986Y376069D01*
X1315926Y376791D01*
X1319999Y380864D01*
X1320461Y380673D01*
Y350433D01*
X1320616Y349258D01*
X1321069Y348164D01*
X1321791Y347224D01*
X1323477Y345537D01*
X1323006Y344963D01*
X1322180Y343418D01*
X1321672Y341743D01*
X1321500Y340000D01*
X1321672Y338257D01*
X1322180Y336582D01*
X1323006Y335037D01*
X1324117Y333684D01*
X1325470Y332573D01*
X1327015Y331747D01*
X1328690Y331239D01*
X1330433Y331067D01*
X1332176Y331239D01*
X1333852Y331747D01*
X1335396Y332573D01*
X1336749Y333684D01*
X1337860Y335037D01*
X1338686Y336582D01*
X1339194Y338257D01*
X1339366Y340000D01*
X1339194Y341743D01*
X1338686Y343418D01*
X1337860Y344963D01*
X1336749Y346316D01*
X1335396Y347427D01*
X1333852Y348253D01*
X1333404Y348388D01*
X1333209Y348642D01*
X1329539Y352313D01*
Y389578D01*
X1329584Y389637D01*
X1330113Y390914D01*
X1330293Y392284D01*
X1330113Y393653D01*
X1329584Y394930D01*
X1328743Y396026D01*
X1327647Y396868D01*
X1326370Y397396D01*
X1325000Y397577D01*
X1323630Y397396D01*
X1322353Y396868D01*
X1321257Y396026D01*
X1320416Y394930D01*
X1319887Y393653D01*
X1319877Y393580D01*
X1310837Y384539D01*
X1279364D01*
X1278189Y384384D01*
X1277095Y383931D01*
X1276155Y383209D01*
X1252484Y359539D01*
X1241880D01*
X1239539Y361880D01*
Y410000D01*
X1239384Y411175D01*
X1238931Y412269D01*
X1238209Y413209D01*
X1223209Y428209D01*
X1222269Y428931D01*
X1221175Y429384D01*
X1220000Y429539D01*
X1190000D01*
X1190000Y429539D01*
D02*
G37*
G36*
X1260567Y347434D02*
Y341000D01*
X1267001D01*
X1266955Y341470D01*
X1266526Y342882D01*
X1265830Y344185D01*
X1264893Y345326D01*
X1263752Y346263D01*
X1262449Y346959D01*
X1261036Y347388D01*
X1260567Y347434D01*
D02*
G37*
G36*
X1258567Y347434D02*
X1258097Y347388D01*
X1256684Y346959D01*
X1255382Y346263D01*
X1254241Y345326D01*
X1253304Y344185D01*
X1252608Y342882D01*
X1252179Y341470D01*
X1252133Y341000D01*
X1258567D01*
Y347434D01*
D02*
G37*
G36*
X1101333Y349000D02*
X1094504D01*
Y342171D01*
X1095051Y342224D01*
X1096538Y342675D01*
X1097908Y343408D01*
X1099110Y344394D01*
X1100096Y345596D01*
X1100828Y346966D01*
X1101280Y348453D01*
X1101333Y349000D01*
D02*
G37*
G36*
X1092504D02*
X1085674D01*
X1085728Y348453D01*
X1086180Y346966D01*
X1086912Y345596D01*
X1087898Y344394D01*
X1089099Y343408D01*
X1090470Y342675D01*
X1091957Y342224D01*
X1092504Y342171D01*
Y349000D01*
D02*
G37*
G36*
X1226000Y340848D02*
Y337000D01*
X1229848D01*
X1229810Y337289D01*
X1229313Y338490D01*
X1228521Y339521D01*
X1227490Y340313D01*
X1226289Y340810D01*
X1226000Y340848D01*
D02*
G37*
G36*
X1224000D02*
X1223711Y340810D01*
X1222510Y340313D01*
X1221479Y339521D01*
X1220687Y338490D01*
X1220190Y337289D01*
X1220152Y337000D01*
X1224000D01*
Y340848D01*
D02*
G37*
G36*
X1355000Y409996D02*
X1353707Y409825D01*
X1352502Y409326D01*
X1351468Y408532D01*
X1350674Y407498D01*
X1350175Y406293D01*
X1350004Y405000D01*
X1350175Y403707D01*
X1350674Y402502D01*
X1351468Y401468D01*
X1352502Y400674D01*
X1353707Y400175D01*
X1355000Y400004D01*
X1356293Y400175D01*
X1357498Y400674D01*
X1358532Y401468D01*
X1359326Y402502D01*
X1359825Y403707D01*
X1359995Y405000D01*
X1359825Y406293D01*
X1359326Y407498D01*
X1358532Y408532D01*
X1357498Y409326D01*
X1356293Y409825D01*
X1355000Y409996D01*
D02*
G37*
G36*
X1257000Y429293D02*
X1255630Y429113D01*
X1254353Y428584D01*
X1253257Y427743D01*
X1252416Y426647D01*
X1251887Y425370D01*
X1251707Y424000D01*
X1251887Y422630D01*
X1252416Y421353D01*
X1253257Y420257D01*
X1254353Y419416D01*
X1255630Y418887D01*
X1257000Y418707D01*
X1258370Y418887D01*
X1259647Y419416D01*
X1260743Y420257D01*
X1261584Y421353D01*
X1262113Y422630D01*
X1262293Y424000D01*
X1262113Y425370D01*
X1261584Y426647D01*
X1260743Y427743D01*
X1259647Y428584D01*
X1258370Y429113D01*
X1257000Y429293D01*
D02*
G37*
G36*
X1330248Y432965D02*
X1319752D01*
Y422469D01*
X1330248D01*
Y432965D01*
D02*
G37*
G36*
X1300953Y440283D02*
X1298000D01*
Y437331D01*
X1300953D01*
Y440283D01*
D02*
G37*
G36*
X1296000D02*
X1293047D01*
Y437331D01*
X1296000D01*
Y440283D01*
D02*
G37*
G36*
X1356000Y398855D02*
Y396000D01*
X1358855D01*
X1358851Y396032D01*
X1358453Y396993D01*
X1357819Y397819D01*
X1356993Y398453D01*
X1356032Y398851D01*
X1356000Y398855D01*
D02*
G37*
G36*
X1358953Y384000D02*
X1356000D01*
Y381047D01*
X1358953D01*
Y384000D01*
D02*
G37*
G36*
X1354000D02*
X1351047D01*
Y381047D01*
X1354000D01*
Y384000D01*
D02*
G37*
G36*
X1159433Y389000D02*
X1152604D01*
X1152658Y388453D01*
X1153109Y386966D01*
X1153841Y385595D01*
X1154827Y384394D01*
X1156028Y383408D01*
X1157399Y382676D01*
X1158886Y382224D01*
X1159433Y382171D01*
Y389000D01*
D02*
G37*
G36*
X1354000Y388953D02*
X1351047D01*
Y386000D01*
X1354000D01*
Y388953D01*
D02*
G37*
G36*
X1168262Y389000D02*
X1161433D01*
Y382171D01*
X1161980Y382224D01*
X1163467Y382676D01*
X1164838Y383408D01*
X1166039Y384394D01*
X1167025Y385595D01*
X1167758Y386966D01*
X1168209Y388453D01*
X1168262Y389000D01*
D02*
G37*
G36*
X1161433Y397829D02*
Y391000D01*
X1168262D01*
X1168209Y391547D01*
X1167758Y393034D01*
X1167025Y394405D01*
X1166039Y395606D01*
X1164838Y396592D01*
X1163467Y397324D01*
X1161980Y397776D01*
X1161433Y397829D01*
D02*
G37*
G36*
X1354000Y398855D02*
X1353968Y398851D01*
X1353007Y398453D01*
X1352181Y397819D01*
X1351547Y396993D01*
X1351149Y396032D01*
X1351145Y396000D01*
X1354000D01*
Y398855D01*
D02*
G37*
G36*
X1358855Y394000D02*
X1356000D01*
Y391145D01*
X1356032Y391149D01*
X1356993Y391547D01*
X1357819Y392181D01*
X1358453Y393007D01*
X1358851Y393968D01*
X1358855Y394000D01*
D02*
G37*
G36*
X1354000D02*
X1351145D01*
X1351149Y393968D01*
X1351547Y393007D01*
X1352181Y392181D01*
X1353007Y391547D01*
X1353968Y391149D01*
X1354000Y391145D01*
Y394000D01*
D02*
G37*
G36*
X1159433Y397830D02*
X1158886Y397776D01*
X1157399Y397324D01*
X1156028Y396592D01*
X1154827Y395606D01*
X1153841Y394405D01*
X1153109Y393034D01*
X1152658Y391547D01*
X1152604Y391000D01*
X1159433D01*
Y397830D01*
D02*
G37*
G36*
X1358953Y388953D02*
X1356000D01*
Y386000D01*
X1358953D01*
Y388953D01*
D02*
G37*
%LPD*%
G36*
X1187508Y418734D02*
X1187800Y414401D01*
X1187909Y413934D01*
X1188034Y413601D01*
X1188176Y413401D01*
X1188334Y413335D01*
X1181666D01*
X1181824Y413401D01*
X1181966Y413601D01*
X1182091Y413934D01*
X1182200Y414401D01*
X1182291Y415001D01*
X1182425Y416601D01*
X1182500Y420000D01*
X1187500D01*
X1187508Y418734D01*
D02*
G37*
G36*
X1188176Y406591D02*
X1188034Y406365D01*
X1187909Y405991D01*
X1187800Y405466D01*
X1187709Y404790D01*
X1187575Y402990D01*
X1187500Y399166D01*
X1182500D01*
X1182492Y400591D01*
X1182200Y405466D01*
X1182091Y405991D01*
X1181966Y406365D01*
X1181824Y406591D01*
X1181666Y406666D01*
X1188334D01*
X1188176Y406591D01*
D02*
G37*
%LPC*%
G36*
X941848Y357000D02*
X938000D01*
Y353152D01*
X938289Y353190D01*
X939490Y353688D01*
X940521Y354479D01*
X941313Y355510D01*
X941810Y356711D01*
X941848Y357000D01*
D02*
G37*
G36*
X1000504Y362829D02*
Y356000D01*
X1007333D01*
X1007280Y356547D01*
X1006828Y358034D01*
X1006096Y359404D01*
X1005110Y360606D01*
X1003909Y361592D01*
X1002538Y362325D01*
X1001051Y362776D01*
X1000504Y362829D01*
D02*
G37*
G36*
X998504D02*
X997957Y362776D01*
X996470Y362325D01*
X995099Y361592D01*
X993898Y360606D01*
X992912Y359404D01*
X992179Y358034D01*
X991728Y356547D01*
X991675Y356000D01*
X998504D01*
Y362829D01*
D02*
G37*
G36*
X1007333Y354000D02*
X1000504D01*
Y347171D01*
X1001051Y347224D01*
X1002538Y347675D01*
X1003909Y348408D01*
X1005110Y349394D01*
X1006096Y350595D01*
X1006828Y351966D01*
X1007280Y353453D01*
X1007333Y354000D01*
D02*
G37*
G36*
X998504D02*
X991675D01*
X991728Y353453D01*
X992179Y351966D01*
X992912Y350595D01*
X993898Y349394D01*
X995099Y348408D01*
X996470Y347675D01*
X997957Y347224D01*
X998504Y347171D01*
Y354000D01*
D02*
G37*
G36*
X936000Y357000D02*
X932152D01*
X932190Y356711D01*
X932687Y355510D01*
X933479Y354479D01*
X934510Y353688D01*
X935711Y353190D01*
X936000Y353152D01*
Y357000D01*
D02*
G37*
G36*
Y362848D02*
X935711Y362810D01*
X934510Y362313D01*
X933479Y361521D01*
X932687Y360490D01*
X932190Y359289D01*
X932152Y359000D01*
X936000D01*
Y362848D01*
D02*
G37*
G36*
X896000Y379000D02*
X892152D01*
X892190Y378711D01*
X892688Y377510D01*
X893479Y376479D01*
X894510Y375688D01*
X895711Y375190D01*
X896000Y375152D01*
Y379000D01*
D02*
G37*
G36*
X796333D02*
X789504D01*
Y372171D01*
X790051Y372224D01*
X791538Y372675D01*
X792908Y373408D01*
X794110Y374394D01*
X795096Y375595D01*
X795828Y376966D01*
X796280Y378453D01*
X796333Y379000D01*
D02*
G37*
G36*
X997504Y384000D02*
X990674D01*
X990728Y383453D01*
X991179Y381966D01*
X991912Y380595D01*
X992898Y379394D01*
X994099Y378408D01*
X995470Y377676D01*
X996957Y377224D01*
X997504Y377171D01*
Y384000D01*
D02*
G37*
G36*
X901848Y379000D02*
X898000D01*
Y375152D01*
X898289Y375190D01*
X899490Y375688D01*
X900521Y376479D01*
X901313Y377510D01*
X901810Y378711D01*
X901848Y379000D01*
D02*
G37*
G36*
X787504D02*
X780675D01*
X780728Y378453D01*
X781180Y376966D01*
X781912Y375595D01*
X782898Y374394D01*
X784099Y373408D01*
X785470Y372675D01*
X786957Y372224D01*
X787504Y372170D01*
Y379000D01*
D02*
G37*
G36*
X886333Y334000D02*
X879504D01*
Y327171D01*
X880051Y327224D01*
X881538Y327676D01*
X882909Y328408D01*
X884110Y329394D01*
X885096Y330595D01*
X885828Y331966D01*
X886280Y333453D01*
X886333Y334000D01*
D02*
G37*
G36*
X877504D02*
X870675D01*
X870728Y333453D01*
X871179Y331966D01*
X871912Y330595D01*
X872898Y329394D01*
X874099Y328408D01*
X875470Y327676D01*
X876957Y327224D01*
X877504Y327170D01*
Y334000D01*
D02*
G37*
G36*
X784504Y336829D02*
Y330000D01*
X791333D01*
X791280Y330547D01*
X790828Y332034D01*
X790096Y333404D01*
X789110Y334606D01*
X787909Y335592D01*
X786538Y336325D01*
X785051Y336776D01*
X784504Y336829D01*
D02*
G37*
G36*
X782504Y336829D02*
X781957Y336776D01*
X780470Y336325D01*
X779099Y335592D01*
X777898Y334606D01*
X776912Y333404D01*
X776180Y332034D01*
X775728Y330547D01*
X775674Y330000D01*
X782504D01*
Y336829D01*
D02*
G37*
G36*
X877504Y342829D02*
X876957Y342776D01*
X875470Y342324D01*
X874099Y341592D01*
X872898Y340606D01*
X871912Y339405D01*
X871179Y338034D01*
X870728Y336547D01*
X870675Y336000D01*
X877504D01*
Y342829D01*
D02*
G37*
G36*
X1010000Y339848D02*
Y336000D01*
X1013848D01*
X1013810Y336289D01*
X1013313Y337490D01*
X1012521Y338521D01*
X1011490Y339313D01*
X1010289Y339810D01*
X1010000Y339848D01*
D02*
G37*
G36*
X1008000D02*
X1007711Y339810D01*
X1006510Y339313D01*
X1005479Y338521D01*
X1004688Y337490D01*
X1004190Y336289D01*
X1004152Y336000D01*
X1008000D01*
Y339848D01*
D02*
G37*
G36*
X879504Y342829D02*
Y336000D01*
X886333D01*
X886280Y336547D01*
X885828Y338034D01*
X885096Y339405D01*
X884110Y340606D01*
X882909Y341592D01*
X881538Y342324D01*
X880051Y342776D01*
X879504Y342829D01*
D02*
G37*
G36*
X876054Y409000D02*
X873000D01*
Y405946D01*
X873083Y405957D01*
X874093Y406375D01*
X874959Y407041D01*
X875625Y407907D01*
X876043Y408917D01*
X876054Y409000D01*
D02*
G37*
G36*
X871000D02*
X867946D01*
X867957Y408917D01*
X868375Y407907D01*
X869040Y407041D01*
X869907Y406375D01*
X870917Y405957D01*
X871000Y405946D01*
Y409000D01*
D02*
G37*
G36*
X944000D02*
X940946D01*
X940957Y408917D01*
X941375Y407907D01*
X942041Y407041D01*
X942907Y406375D01*
X943917Y405957D01*
X944000Y405946D01*
Y409000D01*
D02*
G37*
G36*
X871000Y414054D02*
X870917Y414043D01*
X869907Y413625D01*
X869040Y412959D01*
X868375Y412093D01*
X867957Y411083D01*
X867946Y411000D01*
X871000D01*
Y414054D01*
D02*
G37*
G36*
X949054Y409000D02*
X946000D01*
Y405946D01*
X946083Y405957D01*
X947093Y406375D01*
X947960Y407041D01*
X948625Y407907D01*
X949043Y408917D01*
X949054Y409000D01*
D02*
G37*
G36*
X976000Y404325D02*
Y397496D01*
X982829D01*
X982776Y398043D01*
X982325Y399530D01*
X981592Y400901D01*
X980606Y402102D01*
X979405Y403088D01*
X978034Y403821D01*
X976547Y404272D01*
X976000Y404325D01*
D02*
G37*
G36*
X974000D02*
X973453Y404272D01*
X971966Y403821D01*
X970595Y403088D01*
X969394Y402102D01*
X968408Y400901D01*
X967675Y399530D01*
X967224Y398043D01*
X967171Y397496D01*
X974000D01*
Y404325D01*
D02*
G37*
G36*
X1014150Y409000D02*
X1011000D01*
Y405850D01*
X1014150D01*
Y409000D01*
D02*
G37*
G36*
X1009000D02*
X1005850D01*
Y405850D01*
X1009000D01*
Y409000D01*
D02*
G37*
G36*
X1096854Y433644D02*
X1094992Y433461D01*
X1093201Y432918D01*
X1091551Y432036D01*
X1090104Y430848D01*
X1088917Y429402D01*
X1088035Y427751D01*
X1087492Y425961D01*
X1087308Y424098D01*
X1087492Y422236D01*
X1088035Y420445D01*
X1088917Y418795D01*
X1090104Y417348D01*
X1091551Y416161D01*
X1093201Y415279D01*
X1094992Y414736D01*
X1096854Y414552D01*
X1098717Y414736D01*
X1100507Y415279D01*
X1102158Y416161D01*
X1103604Y417348D01*
X1104792Y418795D01*
X1105674Y420445D01*
X1106217Y422236D01*
X1106400Y424098D01*
X1106217Y425961D01*
X1105674Y427751D01*
X1104792Y429402D01*
X1103604Y430848D01*
X1102158Y432036D01*
X1100507Y432918D01*
X1098717Y433461D01*
X1096854Y433644D01*
D02*
G37*
G36*
X944000Y414054D02*
X943917Y414043D01*
X942907Y413625D01*
X942041Y412959D01*
X941375Y412093D01*
X940957Y411083D01*
X940946Y411000D01*
X944000D01*
Y414054D01*
D02*
G37*
G36*
X873000D02*
Y411000D01*
X876054D01*
X876043Y411083D01*
X875625Y412093D01*
X874959Y412959D01*
X874093Y413625D01*
X873083Y414043D01*
X873000Y414054D01*
D02*
G37*
G36*
X946000D02*
Y411000D01*
X949054D01*
X949043Y411083D01*
X948625Y412093D01*
X947960Y412959D01*
X947093Y413625D01*
X946083Y414043D01*
X946000Y414054D01*
D02*
G37*
G36*
X1014150Y414150D02*
X1011000D01*
Y411000D01*
X1014150D01*
Y414150D01*
D02*
G37*
G36*
X1009000D02*
X1005850D01*
Y411000D01*
X1009000D01*
Y414150D01*
D02*
G37*
G36*
X787504Y387829D02*
X786957Y387776D01*
X785470Y387325D01*
X784099Y386592D01*
X782898Y385606D01*
X781912Y384404D01*
X781180Y383034D01*
X780728Y381547D01*
X780675Y381000D01*
X787504D01*
Y387829D01*
D02*
G37*
G36*
X1006333Y384000D02*
X999504D01*
Y377171D01*
X1000051Y377224D01*
X1001538Y377676D01*
X1002909Y378408D01*
X1004110Y379394D01*
X1005096Y380595D01*
X1005828Y381966D01*
X1006280Y383453D01*
X1006333Y384000D01*
D02*
G37*
G36*
X896000Y384848D02*
X895711Y384810D01*
X894510Y384313D01*
X893479Y383521D01*
X892688Y382490D01*
X892190Y381289D01*
X892152Y381000D01*
X896000D01*
Y384848D01*
D02*
G37*
G36*
X789504Y387829D02*
Y381000D01*
X796333D01*
X796280Y381547D01*
X795828Y383034D01*
X795096Y384404D01*
X794110Y385606D01*
X792908Y386592D01*
X791538Y387325D01*
X790051Y387776D01*
X789504Y387829D01*
D02*
G37*
G36*
X898000Y384848D02*
Y381000D01*
X901848D01*
X901810Y381289D01*
X901313Y382490D01*
X900521Y383521D01*
X899490Y384313D01*
X898289Y384810D01*
X898000Y384848D01*
D02*
G37*
G36*
X997504Y392829D02*
X996957Y392776D01*
X995470Y392324D01*
X994099Y391592D01*
X992898Y390606D01*
X991912Y389405D01*
X991179Y388034D01*
X990728Y386547D01*
X990674Y386000D01*
X997504D01*
Y392829D01*
D02*
G37*
G36*
X999504D02*
Y386000D01*
X1006333D01*
X1006280Y386547D01*
X1005828Y388034D01*
X1005096Y389405D01*
X1004110Y390606D01*
X1002909Y391592D01*
X1001538Y392324D01*
X1000051Y392776D01*
X999504Y392829D01*
D02*
G37*
G36*
X982829Y395496D02*
X976000D01*
Y388667D01*
X976547Y388720D01*
X978034Y389172D01*
X979405Y389904D01*
X980606Y390890D01*
X981592Y392091D01*
X982325Y393462D01*
X982776Y394949D01*
X982829Y395496D01*
D02*
G37*
G36*
X974000D02*
X967171D01*
X967224Y394949D01*
X967675Y393462D01*
X968408Y392091D01*
X969394Y390890D01*
X970595Y389904D01*
X971966Y389172D01*
X973453Y388720D01*
X974000Y388667D01*
Y395496D01*
D02*
G37*
%LPD*%
D10*
X1504400Y465000D02*
D03*
X1488800D02*
D03*
X1457600D02*
D03*
X1426400D02*
D03*
X1410800D02*
D03*
X1442000D02*
D03*
X1395200D02*
D03*
X1505600Y185000D02*
D03*
X1490000D02*
D03*
X1458800D02*
D03*
X1443200D02*
D03*
X1427600D02*
D03*
X1412000D02*
D03*
X1396400D02*
D03*
X751800D02*
D03*
X736200D02*
D03*
X705000D02*
D03*
X673800D02*
D03*
X689400D02*
D03*
X658200D02*
D03*
X642600D02*
D03*
X371800Y465000D02*
D03*
X356200D02*
D03*
X325000D02*
D03*
X293800D02*
D03*
X278200D02*
D03*
X309400D02*
D03*
X262600D02*
D03*
X1129800Y185000D02*
D03*
X1114200D02*
D03*
X1083000D02*
D03*
X1051800D02*
D03*
X1067400D02*
D03*
X1036200D02*
D03*
X1020600D02*
D03*
X370600D02*
D03*
X355000D02*
D03*
X323800D02*
D03*
X292600D02*
D03*
X308200D02*
D03*
X277000D02*
D03*
X261400D02*
D03*
X751800Y465000D02*
D03*
X736200D02*
D03*
X705000D02*
D03*
X673800D02*
D03*
X658200D02*
D03*
X689400D02*
D03*
X642600D02*
D03*
D11*
X1520000D02*
D03*
X1379600D02*
D03*
X1521200Y185000D02*
D03*
X1380800D02*
D03*
X767400D02*
D03*
X627000D02*
D03*
X387400Y465000D02*
D03*
X247000D02*
D03*
X1145400Y185000D02*
D03*
X1005000D02*
D03*
X386200D02*
D03*
X245800D02*
D03*
X767400Y465000D02*
D03*
X627000D02*
D03*
D12*
X1615000Y301400D02*
D03*
Y317000D02*
D03*
Y270200D02*
D03*
Y285800D02*
D03*
Y379400D02*
D03*
Y363800D02*
D03*
Y332600D02*
D03*
D13*
Y254600D02*
D03*
Y395000D02*
D03*
D14*
X935000D02*
Y410000D01*
Y395000D02*
X945000Y385000D01*
Y363504D02*
Y385000D01*
X833000Y343496D02*
Y381000D01*
X862000Y410000D01*
X1505300Y255200D02*
X1600500D01*
X1550800Y364200D02*
X1599500D01*
X1555300Y395700D02*
X1599000D01*
X388100Y317000D02*
X1422500D01*
X1551300Y379700D02*
X1599000D01*
X945000Y363504D02*
X975000Y333504D01*
X955000Y410000D02*
X956000Y411000D01*
Y421000D01*
X924000Y426000D02*
X951000D01*
X905000Y360315D02*
X914843Y370158D01*
Y416843D02*
X924000Y426000D01*
X914843Y370158D02*
Y416843D01*
X951000Y426000D02*
X956000Y421000D01*
X833000Y343496D02*
X846496Y330000D01*
X882000Y394000D02*
Y410000D01*
X868000Y380000D02*
X882000Y394000D01*
X1355000Y291000D02*
X1392000D01*
X1075000D02*
X1355000D01*
X819000Y282000D02*
X1065100D01*
X687800D02*
X819000D01*
X975000Y333504D02*
X983004Y325500D01*
X1185658D02*
X1195158Y335000D01*
X983004Y325500D02*
X1185658D01*
X1325000Y350433D02*
X1330000Y345433D01*
X1325000Y350433D02*
Y392284D01*
X1279364Y380000D02*
X1312716D01*
X1190000Y425000D02*
X1220000D01*
X1254364Y355000D02*
X1279364Y380000D01*
X1240000Y355000D02*
X1254364D01*
X1235000Y360000D02*
X1240000Y355000D01*
X1235000Y360000D02*
Y410000D01*
X1220000Y425000D02*
X1235000Y410000D01*
X1312716Y380000D02*
X1325000Y392284D01*
X1185000Y420000D02*
X1190000Y425000D01*
X1185000Y410000D02*
Y420000D01*
Y345158D02*
X1195158Y335000D01*
X1185000Y345158D02*
Y370000D01*
X1205000Y390000D02*
Y410000D01*
X1185000Y370000D02*
X1205000Y390000D01*
X1185000Y395000D02*
Y410000D01*
X1156496Y366496D02*
X1185000Y395000D01*
X1156496Y350000D02*
Y366496D01*
X1256909Y443090D02*
X1270000Y430000D01*
X1153091Y443090D02*
X1256909D01*
X1100000Y390000D02*
X1153091Y443090D01*
X1257000Y388567D02*
X1258433Y390000D01*
X1270000D01*
Y430000D01*
X1089567Y390000D02*
X1100000D01*
X1061496Y355000D02*
X1089567Y383071D01*
Y390000D01*
X1059567Y420000D02*
X1089567Y390000D01*
X1025000Y420000D02*
X1059567D01*
X1020000Y415000D02*
X1025000Y420000D01*
X1020000Y410000D02*
Y415000D01*
X1030000Y410000D02*
X1055000Y385000D01*
X1061496D01*
X1039685Y363189D02*
X1061496Y385000D01*
X1039685Y335000D02*
Y363189D01*
X749800Y309000D02*
X1126500D01*
X930315Y335000D02*
X941496D01*
X905000Y360315D02*
X930315Y335000D01*
X894685Y350000D02*
X905000Y360315D01*
X865000Y350000D02*
X894685D01*
X846496Y331496D02*
X865000Y350000D01*
X846496Y330000D02*
Y331496D01*
X1336500Y247500D02*
X1381000Y203000D01*
X1371500Y273500D02*
X1427500Y217500D01*
X1422500Y317000D02*
X1521500Y218000D01*
X1392000Y291000D02*
X1459000Y224000D01*
X1358000Y265000D02*
X1412000Y211000D01*
X1416000Y309000D02*
X1505500Y219500D01*
X1403500Y300000D02*
X1490000Y213500D01*
X1381500Y282000D02*
X1443500Y220000D01*
X1346500Y256000D02*
X1396500Y206000D01*
X625300Y247500D02*
X1002600D01*
X247500D02*
X625300D01*
X1521100Y429900D02*
X1555300Y395700D01*
X1521100Y429900D02*
Y447500D01*
X1505100Y425900D02*
X1551300Y379700D01*
X1505100Y425900D02*
Y447500D01*
X1489600Y425400D02*
X1550800Y364200D01*
X1489600Y425400D02*
Y448000D01*
X1458600Y428900D02*
X1554300Y333200D01*
X1458600Y428900D02*
Y447000D01*
X1443100Y411900D02*
X1537800Y317200D01*
X1443100Y411900D02*
Y448000D01*
X1427100Y407900D02*
X1533300Y301700D01*
X1427100Y407900D02*
Y447500D01*
X1411600Y394900D02*
X1520300Y286200D01*
X1396100Y386400D02*
X1511800Y270700D01*
X1396100Y386400D02*
Y448500D01*
X1380600Y379900D02*
X1505300Y255200D01*
X1380600Y379900D02*
Y449000D01*
X1411600Y394900D02*
Y448000D01*
X1521500Y204500D02*
Y218000D01*
X1427500Y204500D02*
Y217500D01*
X1412000Y204000D02*
Y211000D01*
X1396500Y203500D02*
Y206000D01*
X1490000Y204000D02*
Y213500D01*
X1505500Y204500D02*
Y219500D01*
X1443500Y204000D02*
Y220000D01*
X1126500Y309000D02*
X1416000D01*
X1116500Y300000D02*
X1403500D01*
X1065100Y282000D02*
X1381500D01*
X1049100Y273500D02*
X1371500D01*
X1002600Y247500D02*
X1336500D01*
X738500Y300000D02*
X1116500D01*
X696000Y291000D02*
X1075000D01*
X360652Y300000D02*
X738500D01*
X322056Y291000D02*
X696000D01*
X371200Y309000D02*
X749800D01*
X246500Y247500D02*
X247500D01*
X277500Y265000D02*
X657000D01*
X1358000D01*
X1520300Y286200D02*
X1599500D01*
X294000Y273500D02*
X670500D01*
X1049100D01*
X1533300Y301700D02*
X1599000D01*
X309200Y282000D02*
X687800D01*
X1537800Y317200D02*
X1599000D01*
X1459000Y187500D02*
Y224000D01*
X1554300Y333200D02*
X1598500D01*
X262000Y256000D02*
X640500D01*
X1346500D01*
X1511800Y270700D02*
X1600000D01*
X851496Y380000D02*
X863000D01*
X868000D01*
X1330000Y341000D02*
Y345433D01*
D15*
X1205000Y410000D02*
D03*
X1195000D02*
D03*
D16*
X1185000D02*
D03*
D17*
X882000D02*
D03*
X872000D02*
D03*
X1030000D02*
D03*
X1020000D02*
D03*
X955000D02*
D03*
X945000D02*
D03*
D18*
X862000D02*
D03*
X1010000D02*
D03*
X935000D02*
D03*
D19*
X1355000Y395000D02*
D03*
Y405000D02*
D03*
X1287000Y441284D02*
D03*
X1353062Y433614D02*
D03*
X1358968Y421803D02*
D03*
X1341251Y433614D02*
D03*
X1347157Y421803D02*
D03*
X1341251Y409992D02*
D03*
Y386370D02*
D03*
X1347157Y374559D02*
D03*
X1341251Y362748D02*
D03*
X1347157Y350937D02*
D03*
X1335346Y421803D02*
D03*
X1329440Y409992D02*
D03*
X1335346Y398181D02*
D03*
Y374559D02*
D03*
X1317629Y409992D02*
D03*
X1305818D02*
D03*
X1311724Y398181D02*
D03*
X1305818Y362748D02*
D03*
X1311724Y350937D02*
D03*
X1305818Y339126D02*
D03*
X1294007Y409992D02*
D03*
X1299913Y398181D02*
D03*
X1294007Y362748D02*
D03*
X1299913Y350937D02*
D03*
X1294007Y339126D02*
D03*
X1282196Y409992D02*
D03*
X1288102Y398181D02*
D03*
X1282196Y362748D02*
D03*
X1288102Y350937D02*
D03*
X1282196Y339126D02*
D03*
X1276291Y350937D02*
D03*
X1258574Y409992D02*
D03*
X1246763Y433614D02*
D03*
Y409992D02*
D03*
Y386370D02*
D03*
X1234952Y433614D02*
D03*
X1240858Y421803D02*
D03*
X1223141Y433614D02*
D03*
Y409992D02*
D03*
Y386370D02*
D03*
Y362748D02*
D03*
X1229047Y350937D02*
D03*
X1211330Y457236D02*
D03*
Y433614D02*
D03*
X1217236Y398181D02*
D03*
Y374559D02*
D03*
X1211330Y362748D02*
D03*
X1217236Y350937D02*
D03*
X1211330Y339126D02*
D03*
X1205425Y469047D02*
D03*
X1199519Y457236D02*
D03*
Y433614D02*
D03*
X1205425Y374559D02*
D03*
X1199519Y362748D02*
D03*
X1205425Y350937D02*
D03*
X1193614Y469047D02*
D03*
X1187708Y457236D02*
D03*
Y433614D02*
D03*
X1193614Y398181D02*
D03*
X1187708Y386370D02*
D03*
X1193614Y350937D02*
D03*
X1181803Y469047D02*
D03*
X1175897Y457236D02*
D03*
Y433614D02*
D03*
Y339126D02*
D03*
X1169992Y469047D02*
D03*
X1164086Y457236D02*
D03*
Y433614D02*
D03*
X1169992Y421803D02*
D03*
X1164086Y409992D02*
D03*
X1169992Y398181D02*
D03*
Y350937D02*
D03*
X1158181Y469047D02*
D03*
X1152275Y457236D02*
D03*
X1158181Y421803D02*
D03*
X1152275Y409992D02*
D03*
X1146369Y469047D02*
D03*
X1140464Y457236D02*
D03*
X1146369Y421803D02*
D03*
X1140464Y409992D02*
D03*
X1146369Y398181D02*
D03*
X1140464Y386370D02*
D03*
X1146369Y374559D02*
D03*
X1140464Y362748D02*
D03*
Y339126D02*
D03*
X1134558Y469047D02*
D03*
X1128653Y457236D02*
D03*
X1134558Y445425D02*
D03*
X1128653Y433614D02*
D03*
X1134558Y398181D02*
D03*
X1128653Y386370D02*
D03*
X1134558Y374559D02*
D03*
X1128653Y362748D02*
D03*
X1134558Y350937D02*
D03*
X1128653Y339126D02*
D03*
X1122748Y469047D02*
D03*
X1116842Y457236D02*
D03*
X1122748Y445425D02*
D03*
X1116842Y433614D02*
D03*
X1122748Y398181D02*
D03*
X1116842Y386370D02*
D03*
X1122748Y374559D02*
D03*
X1116842Y362748D02*
D03*
X1122748Y350937D02*
D03*
X1116842Y339126D02*
D03*
X1110937Y469047D02*
D03*
X1105031Y457236D02*
D03*
X1110937Y445425D02*
D03*
X1105031Y433614D02*
D03*
X1110937Y421803D02*
D03*
X1105031Y409992D02*
D03*
X1110937Y374559D02*
D03*
X1105031Y362748D02*
D03*
X1110937Y350937D02*
D03*
X1105031Y339126D02*
D03*
X1099125Y469047D02*
D03*
X1093220Y457236D02*
D03*
X1099125Y445425D02*
D03*
X1093220Y409992D02*
D03*
X1099125Y374559D02*
D03*
X1087314Y469047D02*
D03*
X1081409Y457236D02*
D03*
X1087314Y445425D02*
D03*
X1081409Y433614D02*
D03*
Y409992D02*
D03*
Y362748D02*
D03*
Y339126D02*
D03*
X1075503Y469047D02*
D03*
X1069598Y457236D02*
D03*
X1075503Y445425D02*
D03*
X1069598Y433614D02*
D03*
X1075503Y421803D02*
D03*
Y350937D02*
D03*
X1069598Y339126D02*
D03*
X1063692Y469047D02*
D03*
X1057787Y457236D02*
D03*
X1063692Y445425D02*
D03*
X1057787Y433614D02*
D03*
Y409992D02*
D03*
X1063692Y398181D02*
D03*
X1057787Y339126D02*
D03*
X1051881Y469047D02*
D03*
X1045976Y457236D02*
D03*
X1051881Y445425D02*
D03*
X1045976Y433614D02*
D03*
Y409992D02*
D03*
X1040070Y469047D02*
D03*
X1034165Y457236D02*
D03*
X1040070Y445425D02*
D03*
X1034165Y433614D02*
D03*
Y386370D02*
D03*
X1040070Y374559D02*
D03*
X1028259Y469047D02*
D03*
X1022354Y457236D02*
D03*
X1028259Y445425D02*
D03*
X1022354Y433614D02*
D03*
X1028259Y398181D02*
D03*
X1022354Y386370D02*
D03*
X1028259Y374559D02*
D03*
X1022354Y362748D02*
D03*
X1028259Y350937D02*
D03*
X1022354Y339126D02*
D03*
X1016448Y469047D02*
D03*
X1010543Y457236D02*
D03*
X1016448Y445425D02*
D03*
X1010543Y433614D02*
D03*
X1016448Y398181D02*
D03*
X1010543Y386370D02*
D03*
X1016448Y374559D02*
D03*
X1010543Y362748D02*
D03*
X1016448Y350937D02*
D03*
X1004637Y469047D02*
D03*
X998732Y457236D02*
D03*
X1004637Y445425D02*
D03*
X998732Y433614D02*
D03*
X1004637Y421803D02*
D03*
X998732Y409992D02*
D03*
X1004637Y398181D02*
D03*
X998732Y339126D02*
D03*
X992826Y469047D02*
D03*
X986921Y457236D02*
D03*
X992826Y445425D02*
D03*
X986921Y433614D02*
D03*
X992826Y421803D02*
D03*
X986921Y409992D02*
D03*
Y362748D02*
D03*
Y339126D02*
D03*
X981015Y469047D02*
D03*
X975110Y457236D02*
D03*
X981015Y445425D02*
D03*
X975110Y433614D02*
D03*
X981015Y421803D02*
D03*
X975110Y409992D02*
D03*
X981015Y374559D02*
D03*
X975110Y362748D02*
D03*
X981015Y350937D02*
D03*
X969204Y469047D02*
D03*
X963299Y457236D02*
D03*
X969204Y445425D02*
D03*
X963299Y433614D02*
D03*
X969204Y421803D02*
D03*
X963299Y386370D02*
D03*
X969204Y374559D02*
D03*
X963299Y362748D02*
D03*
X969204Y350937D02*
D03*
X957393Y469047D02*
D03*
X951488Y457236D02*
D03*
X957393Y445425D02*
D03*
X951488Y433614D02*
D03*
X957393Y374559D02*
D03*
X945582Y469047D02*
D03*
X939677Y457236D02*
D03*
X945582Y445425D02*
D03*
X939677Y433614D02*
D03*
X945582Y350937D02*
D03*
X933771Y469047D02*
D03*
X927866Y457236D02*
D03*
X933771Y445425D02*
D03*
X927866Y433614D02*
D03*
Y386370D02*
D03*
X933771Y374559D02*
D03*
X927866Y362748D02*
D03*
X921960Y469047D02*
D03*
X916055Y457236D02*
D03*
X921960Y445425D02*
D03*
X916055Y433614D02*
D03*
X910149Y469047D02*
D03*
X904244Y457236D02*
D03*
X910149Y445425D02*
D03*
X904244Y433614D02*
D03*
Y409992D02*
D03*
Y386370D02*
D03*
Y339126D02*
D03*
X898338Y469047D02*
D03*
X892433Y457236D02*
D03*
X898338Y445425D02*
D03*
X892433Y433614D02*
D03*
X898338Y398181D02*
D03*
X892433Y386370D02*
D03*
Y362748D02*
D03*
X886527Y469047D02*
D03*
X880622Y457236D02*
D03*
X886527Y445425D02*
D03*
X880622Y433614D02*
D03*
X886527Y374559D02*
D03*
X880622Y362748D02*
D03*
X874716Y469047D02*
D03*
X868811Y457236D02*
D03*
X874716Y445425D02*
D03*
X868811Y433614D02*
D03*
Y362748D02*
D03*
X862905Y469047D02*
D03*
X856999Y457236D02*
D03*
X862905Y445425D02*
D03*
X856999Y433614D02*
D03*
Y362748D02*
D03*
X845189Y433614D02*
D03*
Y362748D02*
D03*
X851094Y350937D02*
D03*
X833377Y433614D02*
D03*
X839283Y421803D02*
D03*
X833377Y409992D02*
D03*
X839283Y398181D02*
D03*
X821566Y433614D02*
D03*
X827472Y421803D02*
D03*
X821566Y409992D02*
D03*
X827472Y398181D02*
D03*
X821566Y386370D02*
D03*
Y362748D02*
D03*
X809756Y433614D02*
D03*
X815661Y421803D02*
D03*
X809756Y409992D02*
D03*
X815661Y398181D02*
D03*
X809756Y386370D02*
D03*
X815661Y374559D02*
D03*
X809756Y362748D02*
D03*
Y339126D02*
D03*
X797944Y433614D02*
D03*
X803850Y421803D02*
D03*
X797944Y409992D02*
D03*
X803850Y398181D02*
D03*
Y374559D02*
D03*
X797944Y362748D02*
D03*
X803850Y350937D02*
D03*
X797944Y339126D02*
D03*
X786133Y433614D02*
D03*
X792039Y421803D02*
D03*
X786133Y409992D02*
D03*
X792039Y398181D02*
D03*
X786133Y362748D02*
D03*
X792039Y350937D02*
D03*
D20*
X1355000Y385000D02*
D03*
D21*
X1297000Y441284D02*
D03*
D22*
X1257000Y388567D02*
D03*
X1325000Y427716D02*
D03*
D23*
X1257000Y424000D02*
D03*
X1325000Y392284D02*
D03*
D24*
X322056Y291000D02*
D03*
X309200Y281500D02*
D03*
X294000Y272500D02*
D03*
X278000Y263500D02*
D03*
X263000Y255500D02*
D03*
X247500Y247500D02*
D03*
D25*
X1259567Y340000D02*
D03*
X1089567Y390000D02*
D03*
D26*
X1330433Y340000D02*
D03*
X1156496Y350000D02*
D03*
X1093504D02*
D03*
X975000Y333504D02*
D03*
Y396496D02*
D03*
X1160433Y390000D02*
D03*
X999504Y355000D02*
D03*
X1062496D02*
D03*
X998504Y385000D02*
D03*
X1061496D02*
D03*
X1185504Y369000D02*
D03*
X1248496D02*
D03*
X941496Y335000D02*
D03*
X878504D02*
D03*
X846496Y329000D02*
D03*
X783504D02*
D03*
X851496Y380000D02*
D03*
X788504D02*
D03*
D27*
X1225000Y336000D02*
D03*
X1195000D02*
D03*
X1039000Y335000D02*
D03*
X1009000D02*
D03*
X937000Y358000D02*
D03*
X907000D02*
D03*
X897000Y380000D02*
D03*
X867000D02*
D03*
D28*
X1488600Y448500D02*
D03*
X1520100Y448000D02*
D03*
X1504100D02*
D03*
X1442100Y448500D02*
D03*
X1457600Y447500D02*
D03*
X1410600Y448500D02*
D03*
X1426100Y448000D02*
D03*
X1379600Y449500D02*
D03*
X1395100Y449000D02*
D03*
X1598500Y363600D02*
D03*
X1598000Y379100D02*
D03*
Y395100D02*
D03*
X1597500Y332600D02*
D03*
X1599000Y270100D02*
D03*
X1599500Y254600D02*
D03*
X1598500Y317100D02*
D03*
X1598000Y301100D02*
D03*
X1598500Y285600D02*
D03*
X1521300Y202000D02*
D03*
X1505300D02*
D03*
X1489800Y201500D02*
D03*
X1458800Y202500D02*
D03*
X1443300Y201500D02*
D03*
X1427300Y202000D02*
D03*
X1411800Y201500D02*
D03*
X1396300Y201000D02*
D03*
X1380800Y200500D02*
D03*
X767500Y202000D02*
D03*
X751500D02*
D03*
X736000Y201500D02*
D03*
X705000Y202500D02*
D03*
X689500Y201500D02*
D03*
X673500Y202000D02*
D03*
X658000Y201500D02*
D03*
X642500Y201000D02*
D03*
X627000Y200500D02*
D03*
X356000Y448500D02*
D03*
X387500Y448000D02*
D03*
X371500D02*
D03*
X309500Y448500D02*
D03*
X325000Y447500D02*
D03*
X278000Y448500D02*
D03*
X293500Y448000D02*
D03*
X247000Y449500D02*
D03*
X262500Y449000D02*
D03*
X1145500Y202000D02*
D03*
X1129500D02*
D03*
X1114000Y201500D02*
D03*
X1083000Y202500D02*
D03*
X1067500Y201500D02*
D03*
X1051500Y202000D02*
D03*
X1036000Y201500D02*
D03*
X1020500Y201000D02*
D03*
X1005000Y200500D02*
D03*
X386300Y202000D02*
D03*
X370300D02*
D03*
X354800Y201500D02*
D03*
X323800Y202500D02*
D03*
X308300Y201500D02*
D03*
X292300Y202000D02*
D03*
X276800Y201500D02*
D03*
X261300Y201000D02*
D03*
X245800Y200500D02*
D03*
X736000Y448500D02*
D03*
X767500Y448000D02*
D03*
X751500D02*
D03*
X689500Y448500D02*
D03*
X705000Y447500D02*
D03*
X658000Y448500D02*
D03*
X673500Y448000D02*
D03*
X627000Y449500D02*
D03*
X642500Y449000D02*
D03*
X1355000Y291000D02*
D03*
X819000Y282000D02*
D03*
X846496Y273504D02*
D03*
X1195158Y265158D02*
D03*
X1143100Y318500D02*
D03*
X1126500Y309000D02*
D03*
X1116500Y300000D02*
D03*
X1075000Y291000D02*
D03*
X1065100Y282000D02*
D03*
X1049100Y273500D02*
D03*
X1033600Y264900D02*
D03*
X1018100Y255900D02*
D03*
X1002600Y247500D02*
D03*
X766500Y317500D02*
D03*
X749800Y309000D02*
D03*
X738500Y300000D02*
D03*
X696000Y291000D02*
D03*
X687800Y282000D02*
D03*
X670500Y273500D02*
D03*
X657000Y265000D02*
D03*
X640500Y256000D02*
D03*
X625300Y247500D02*
D03*
X388100Y318500D02*
D03*
X371200Y309000D02*
D03*
X360652Y300000D02*
D03*
M02*
