M48
;Layer_Color=9474304
;FILE_FORMAT=2:5
INCH,LZ
;TYPE=PLATED
T1F00S00C0.02756
T2F00S00C0.02800
T3F00S00C0.03000
T4F00S00C0.03543
T5F00S00C0.03937
T6F00S00C0.04331
T7F00S00C0.04528
T8F00S00C0.05906
%
T01
X0797944Y0339126
X0809756
X080385Y0350937
X0792039
X0797944Y0362748
X0809756
X0821566
X0815661Y0374559
X080385
X0809756Y038637
X0821566
X0827472Y0398181
X0839283
X0833377Y0409992
X0821566
X0809756
X0797944
X0786133
X0792039Y0421803
X080385
X0815661
X0827472
X0839283
X0845189Y0433614
X0856999
X0868811
X0880622
X0892433
X0904244
X0916055
X0904244Y0409992
X0898338Y0398181
X0904244Y038637
X0892433
X0897Y038
X0886527Y0374559
X0892433Y0362748
X0880622
X0868811
X0856999
X0845189
X0851094Y0350937
X0867Y038
X0907Y0358
X0904244Y0339126
X0786133Y0362748
X0792039Y0398181
X080385
X0815661
X0821566Y0433614
X0833377
X0809756
X0797944
X0786133
X0927866
X0939677
X0951488
X0963299
X097511
X0986921
X0998732
X1010543
X1022354
X1034165
X1045976
X1057787
X1069598
X1075503Y0421803
X1057787Y0409992
X1045976
X1063692Y0398181
X1028259
X1016448
X1004637
X1010543Y038637
X1022354
X1034165
X104007Y0374559
X1028259
X1016448
X1022354Y0362748
X1010543
X1016448Y0350937
X1028259
X1022354Y0339126
X1009Y0335
X0998732Y0339126
X0986921
X0981015Y0350937
X0969204
X097511Y0362748
X0986921
X0981015Y0374559
X0969204
X0957393
X0963299Y038637
Y0362748
X0945582Y0350937
X0937Y0358
X0927866Y0362748
X0933771Y0374559
X0927866Y038637
X097511Y0409992
X0986921
X0998732
X1004637Y0421803
X0992826
X0981015
X0969204
X1039Y0335
X1057787Y0339126
X1069598
X1075503Y0350937
X1081409Y0362748
X1105031
X1116842
X1128653
X1140464
X1146369Y0374559
X1134558
X1122748
X1110937
X1099125
X1116842Y038637
X1128653
X1140464
X1146369Y0398181
X1134558
X1122748
X1140464Y0409992
X1152275
X1164086
X1169992Y0421803
X1158181
X1146369
X1164086Y0433614
X1175897
X1187708
X1199519
X121133
X1223141
Y0409992
X1217236Y0398181
X1223141Y038637
X1217236Y0374559
X1205425
X121133Y0362748
X1223141
X1229047Y0350937
X1217236
X1205425
X1193614
X1195Y0336
X121133Y0339126
X1225Y0336
X1199519Y0362748
X1187708Y038637
X1193614Y0398181
X1169992
Y0350937
X1175897Y0339126
X1140464
X1128653
X1116842
X1105031
X1110937Y0350937
X1122748
X1134558
X1081409Y0339126
Y0409992
X109322
X1105031
X1110937Y0421803
X1116842Y0433614
X1128653
X1105031
X1081409
X1234952
X1246763
X1240858Y0421803
X1246763Y0409992
X1258574
X1282196
X1294007
X1305818
X1317629
X132944
X1341251
X1347157Y0421803
X1358968
X1353062Y0433614
X1341251
X1335346Y0421803
Y0398181
X1341251Y038637
X1347157Y0374559
X1335346
X1341251Y0362748
X1347157Y0350937
X1311724
X1299913
X1288102
X1276291
X1282196Y0362748
X1294007
X1305818
Y0339126
X1294007
X1282196
X1288102Y0398181
X1299913
X1311724
X1246763Y038637
X121133Y0457236
X1199519
X1187708
X1175897
X1164086
X1152275
X1140464
X1128653
X1116842
X1105031
X109322
X1081409
X1087314Y0469047
X1099125
X1110937
X1122748
X1134558
X1146369
X1158181
X1169992
X1181803
X1193614
X1205425
X1134558Y0445425
X1122748
X1110937
X1099125
X1087314
X1075503
X1063692
X1051881
X104007
X1028259
X1016448
X1004637
X0992826
X0981015
X0969204
X0957393
X0945582
X0933771
X092196
X0927866Y0457236
X0939677
X0951488
X0963299
X097511
X0986921
X0998732
X1010543
X1022354
X1034165
X1045976
X1057787
X1069598
X1075503Y0469047
X1063692
X1051881
X104007
X1028259
X1016448
X1004637
X0992826
X0981015
X0969204
X0957393
X0945582
X0933771
X092196
X0910149
X0898338
X0886527
X0874716
X0862905
X0868811Y0457236
X0880622
X0892433
X0904244
X0916055
X0910149Y0445425
X0898338
X0886527
X0874716
X0862905
X0856999Y0457236
T02
X15995Y02546
X1599Y02701
X15213Y0202
X15053
X14898Y02015
X14588Y02025
X14433Y02015
X14273Y0202
X14118Y02015
X13963Y0201
X13808Y02005
X11455Y0202
X11295
X1114Y02015
X1083Y02025
X1195158Y0265158
X10651Y0282
X10491Y02735
X10336Y02649
X10181Y02559
X10026Y02475
X1005Y02005
X10205Y0201
X1036Y02015
X10515Y0202
X10675Y02015
X0846496Y0273504
X0819Y0282
X07675Y0202
X07515
X0736Y02015
X0705Y02025
X06895Y02015
X06735Y0202
X0658Y02015
X06425Y0201
X0627Y02005
X06253Y02475
X06405Y0256
X0657Y0265
X06705Y02735
X06878Y0282
X03863Y0202
X03703
X03548Y02015
X03238Y02025
X03083Y02015
X02923Y0202
X02768Y02015
X02613Y0201
X02458Y02005
X0360652Y03
X03712Y0309
X03881Y03185
X0696Y0291
X07385Y03
X07498Y0309
X07665Y03175
X1075Y0291
X11165Y03
X11265Y0309
X11431Y03185
X1355Y0291
X15985Y02856
X1598Y03011
X15985Y03171
X15975Y03326
X15985Y03636
X1598Y03791
Y03951
X15201Y0448
X15041
X14886Y04485
X14576Y04475
X14421Y04485
X14261Y0448
X14106Y04485
X13951Y0449
X13796Y04495
X07675Y0448
X07515
X0736Y04485
X0705Y04475
X06895Y04485
X06735Y0448
X0658Y04485
X06425Y0449
X0627Y04495
X03875Y0448
X03715
X0356Y04485
X0325Y04475
X03095Y04485
X02935Y0448
X0278Y04485
X02625Y0449
X0247Y04495
T03
X03092Y02815
X0294Y02725
X0278Y02635
X0263Y02555
X02475Y02475
X0322056Y0291
T04
X1355Y0385
Y0395
Y0405
X1297Y0441284
X1287
T05
X0862Y041
X0872
X0882
X0935
X0945
X0955
X101
X102
X103
T06
X1185Y041
X1195
X1205
T07
X1257Y0388567
Y0424
X1325Y0427716
Y0392284
T08
X0783504Y0329
X0788504Y038
X0851496
X0846496Y0329
X0878504Y0335
X0941496
X0975Y0333504
X0999504Y0355
X0998504Y0385
X0975Y0396496
X1061496Y0385
X1062496Y0355
X1093504Y035
X1089567Y039
X1160433
X1156496Y035
X1185504Y0369
X1248496
X1259567Y034
X1330433
M30
